<svg id="Layer_1" data-name="Layer 1" xmlns="http://www.w3.org/2000/svg" xmlns:xlink="http://www.w3.org/1999/xlink" viewBox="0 0 841.89 795.77"><defs><style>.cls-1,.cls-100,.cls-102,.cls-105,.cls-107,.cls-15,.cls-18,.cls-19,.cls-23,.cls-24,.cls-28,.cls-3,.cls-30,.cls-33,.cls-48,.cls-5,.cls-6,.cls-7{fill:none;}.cls-1{stroke:#c42b27;stroke-linecap:round;}.cls-1,.cls-100,.cls-101,.cls-102,.cls-105,.cls-106,.cls-107,.cls-15,.cls-17,.cls-18,.cls-19,.cls-22,.cls-23,.cls-24,.cls-26,.cls-27,.cls-28,.cls-29,.cls-3,.cls-30,.cls-33,.cls-34,.cls-48,.cls-49,.cls-5,.cls-50,.cls-51,.cls-52,.cls-53,.cls-54,.cls-55,.cls-56,.cls-57,.cls-58,.cls-59,.cls-6,.cls-60,.cls-61,.cls-62,.cls-63,.cls-64,.cls-65,.cls-66,.cls-67,.cls-68,.cls-69,.cls-7,.cls-70,.cls-71,.cls-72,.cls-73,.cls-74,.cls-75,.cls-97,.cls-98{stroke-miterlimit:10;}.cls-1,.cls-7{stroke-width:16px;}.cls-2{fill:#c42b27;}.cls-3,.cls-5,.cls-6{stroke:#f7941d;}.cls-26,.cls-27,.cls-3,.cls-48,.cls-5,.cls-6{stroke-width:9px;}.cls-3{stroke-dasharray:12 12;}.cls-4{fill:#f7941d;}.cls-6{stroke-dasharray:12.89 12.89;}.cls-7{stroke:#2682a0;}.cls-8{fill:#2682a0;}.cls-9{fill:#f2b1af;}.cls-10{fill:#92d9f8;}.cls-11{fill:url(#linear-gradient);}.cls-101,.cls-106,.cls-117,.cls-12,.cls-17,.cls-22,.cls-29,.cls-35,.cls-37,.cls-40,.cls-41,.cls-49{fill:#fff;}.cls-13{fill:#91d9f8;}.cls-14{fill:url(#linear-gradient-2);}.cls-15{stroke:#a7a9ac;stroke-width:5.74px;stroke-dasharray:17.21;}.cls-16{fill:url(#linear-gradient-3);}.cls-101,.cls-102,.cls-106,.cls-107,.cls-17,.cls-22,.cls-26,.cls-27,.cls-29,.cls-30,.cls-49{stroke:#231f20;}.cls-17,.cls-18,.cls-19{stroke-width:2.16px;}.cls-18,.cls-19{stroke-dasharray:3.83;}.cls-18{stroke:url(#linear-gradient-4);}.cls-19{stroke:url(#linear-gradient-5);}.cls-20{font-size:20.79px;}.cls-103,.cls-108,.cls-109,.cls-115,.cls-116,.cls-20,.cls-25,.cls-31,.cls-97{fill:#231f20;}.cls-103,.cls-108,.cls-109,.cls-115,.cls-116,.cls-117,.cls-20,.cls-25,.cls-31,.cls-35,.cls-37,.cls-40,.cls-41,.cls-43,.cls-44,.cls-45,.cls-99{font-family:Arial-BoldMT, Arial;font-weight:700;}.cls-21{fill:url(#linear-gradient-6);}.cls-22,.cls-23,.cls-24{stroke-width:2.15px;}.cls-23,.cls-24{stroke-dasharray:3.82;}.cls-23{stroke:url(#linear-gradient-7);}.cls-24{stroke:url(#linear-gradient-8);}.cls-25{font-size:20.67px;}.cls-26{fill:#fed700;}.cls-27{fill:#5cbc68;}.cls-100,.cls-105,.cls-28,.cls-34,.cls-48,.cls-50,.cls-51,.cls-52,.cls-53,.cls-54,.cls-55,.cls-56,.cls-57,.cls-58,.cls-59,.cls-60,.cls-61,.cls-62,.cls-63,.cls-64,.cls-65,.cls-66,.cls-67,.cls-68,.cls-69,.cls-70,.cls-71,.cls-72,.cls-73,.cls-74,.cls-75,.cls-97,.cls-98{stroke:#fff;}.cls-28{stroke-width:10px;}.cls-29{stroke-width:1.44px;}.cls-30{stroke-width:2.14px;}.cls-31{font-size:10.88px;}.cls-104,.cls-32{font-family:Arial-BoldItalicMT, Arial;font-style:italic;}.cls-33{stroke:#939598;stroke-width:4.31px;stroke-dasharray:16.92 16.92;}.cls-34,.cls-98,.cls-99{fill:#ea0a8c;}.cls-34{stroke-width:1.73px;}.cls-35{font-size:26.94px;letter-spacing:0.03em;}.cls-36{fill:#ef4136;}.cls-37{font-size:43.26px;}.cls-38{fill:#2382a0;}.cls-39{fill:#2aace2;}.cls-40{font-size:39.77px;}.cls-41{font-size:28.36px;letter-spacing:0.02em;}.cls-42{letter-spacing:-0.01em;}.cls-43{font-size:51.46px;letter-spacing:-0.01em;}.cls-43,.cls-44{fill:#2882a0;}.cls-44{font-size:48.6px;letter-spacing:-0.01em;}.cls-45{font-size:48.6px;fill:#c42b28;letter-spacing:-0.01em;}.cls-46{letter-spacing:-0.01em;}.cls-47{writing-mode:tb;text-orientation:upright;glyph-orientation-vertical:0deg;font-size:31px;fill:#939598;font-family:Arial-Black, Arial;font-weight:800;letter-spacing:-0.19em;}.cls-49{stroke-width:2.55px;}.cls-50,.cls-76{fill:#cdd6dd;}.cls-50,.cls-51,.cls-52,.cls-53,.cls-54,.cls-55,.cls-56,.cls-57,.cls-58,.cls-59,.cls-60,.cls-61,.cls-62,.cls-63,.cls-64,.cls-65,.cls-66,.cls-67,.cls-68,.cls-69,.cls-70,.cls-71,.cls-72,.cls-73,.cls-74,.cls-75{stroke-width:2px;}.cls-51,.cls-77{fill:#292f33;}.cls-52,.cls-78{fill:#aab8c2;}.cls-53,.cls-79{fill:#c1694f;}.cls-54,.cls-80{fill:#99aab5;}.cls-55,.cls-81{fill:#e1e8ed;}.cls-56,.cls-82{fill:#dd2e44;}.cls-57,.cls-83{fill:#269;}.cls-58,.cls-84{fill:#f5f8fa;}.cls-59,.cls-85{fill:#fdd888;}.cls-60,.cls-86{fill:#fbab41;}.cls-61,.cls-87{fill:#da3047;}.cls-62,.cls-88{fill:#be2032;}.cls-63,.cls-89{fill:#77b253;}.cls-64,.cls-90{fill:#f4abba;}.cls-65,.cls-91{fill:#ffcc4c;}.cls-66,.cls-92{fill:#f39120;}.cls-67,.cls-93{fill:#662213;}.cls-68,.cls-94{fill:#66757f;}.cls-69,.cls-95{fill:#d99e82;}.cls-70,.cls-96{fill:#ea596e;}.cls-110,.cls-71{fill:#ffdc5e;}.cls-111,.cls-72{fill:#fbab35;}.cls-112,.cls-73{fill:#8a69ae;}.cls-113,.cls-74{fill:#7551a1;}.cls-114,.cls-75{fill:#c06952;}.cls-97{stroke-width:4px;}.cls-98{stroke-width:5.04px;}.cls-99{font-size:50.04px;letter-spacing:-0.01em;}.cls-100{stroke-width:13.13px;}.cls-101{stroke-width:1.89px;}.cls-102{stroke-width:2.82px;}.cls-103{font-size:14.29px;}.cls-104{letter-spacing:0em;}.cls-105{stroke-width:14.03px;}.cls-106{stroke-width:2.02px;}.cls-107{stroke-width:3.01px;}.cls-108{font-size:15.27px;}.cls-109{font-size:8.85px;}.cls-115{font-size:10.71px;}.cls-116{font-size:10.65px;}.cls-117{font-size:38px;}</style><linearGradient id="linear-gradient" x1="738.58" y1="229.49" x2="770.77" y2="229.49" gradientUnits="userSpaceOnUse"><stop offset="0" stop-color="#fff"/><stop offset="1" stop-color="#92d9f8"/></linearGradient><linearGradient id="linear-gradient-2" x1="227.69" y1="265.1" x2="258.55" y2="265.1" xlink:href="#linear-gradient"/><linearGradient id="linear-gradient-3" x1="228.69" y1="264.99" x2="255.81" y2="264.99" xlink:href="#linear-gradient"/><linearGradient id="linear-gradient-4" x1="228.69" y1="251.43" x2="255.81" y2="251.43" gradientUnits="userSpaceOnUse"><stop offset="0.01"/><stop offset="0.2" stop-color="#020203"/><stop offset="0.34" stop-color="#070a0c"/><stop offset="0.45" stop-color="#10181b"/><stop offset="0.56" stop-color="#1d2b31"/><stop offset="0.66" stop-color="#2e444e"/><stop offset="0.75" stop-color="#426371"/><stop offset="0.84" stop-color="#5b879a"/><stop offset="0.93" stop-color="#76b0c9"/><stop offset="1" stop-color="#92d9f8"/></linearGradient><linearGradient id="linear-gradient-5" x1="228.69" y1="278.55" x2="255.81" y2="278.55" xlink:href="#linear-gradient-4"/><linearGradient id="linear-gradient-6" x1="742.12" y1="229.72" x2="769.24" y2="229.72" xlink:href="#linear-gradient"/><linearGradient id="linear-gradient-7" x1="741.12" y1="216.24" x2="768.24" y2="216.24" xlink:href="#linear-gradient-4"/><linearGradient id="linear-gradient-8" x1="741.12" y1="243.21" x2="768.24" y2="243.21" xlink:href="#linear-gradient-4"/></defs><title>new-oee4</title><path class="cls-1" d="M104.9,434.58c14.5,112.67,120.73,197.8,215.62,235"/><polygon class="cls-2" points="78.01 443.98 103.71 394.4 133.8 441.44 78.01 443.98"/><path class="cls-1" d="M181.25,446.05c16.07,35.62,55.85,72.29,96.59,80.86"/><polygon class="cls-2" points="157.09 459.41 174.65 406.4 211.78 448.11 157.09 459.41"/><path class="cls-1" d="M563.13,495.28c34.42-19.3,69.1-60.72,72.09-104.65"/><polygon class="cls-2" points="579.24 517.93 524.56 506.6 561.71 464.91 579.24 517.93"/><path class="cls-1" d="M540.14,644.28c106.19-49.9,153.74-143.49,151-249.62"/><polygon class="cls-2" points="558.16 666.63 502.82 659.17 536.94 614.97 558.16 666.63"/><path class="cls-3" d="M473.14,345.48c8.75.37,45.1,6.31,77,2"/><path class="cls-4" d="M568.66,343.54c-8.09,5.06-17.81,12.85-23.33,20.12l2.27-15.77-8.34-13.57C547.22,338.8,559.23,342.1,568.66,343.54Z"/><path class="cls-5" d="M464.75,305.58s17.49,10.62,69.16,3.22"/><path class="cls-4" d="M552.65,305.58c-8.27,4.75-18.28,12.17-24.08,19.22l2.87-15.67-7.82-13.87C531.4,300,543.28,303.79,552.65,305.58Z"/><path class="cls-5" d="M488.16,249.18c3.16-4.77,23.22-10.25,44.06-8.63"/><path class="cls-4" d="M550.88,244.18c-9.39,1.65-21.33,5.22-29.18,9.88l8-13.76-2.63-15.71C532.79,231.73,542.68,239.3,550.88,244.18Z"/><path class="cls-5" d="M504.5,201.26s21.49-4.94,44,1"/><path class="cls-4" d="M566.05,209.43c-9.54-.19-21.94,1-30.54,4.08l10.53-12,.44-15.92C550.69,193.73,558.94,203.07,566.05,209.43Z"/><path class="cls-5" d="M232.34,257.73c26.85-7.41,63.32-11.77,85.22-13.89"/><path class="cls-4" d="M336.5,242.23c-8.61,4.11-19.15,10.76-25.46,17.35l4-15.41-6.74-14.43C315.73,235.1,327.29,239.74,336.5,242.23Z"/><path class="cls-5" d="M229.76,303.11c20.4,2.54,63.22-3,88-6.78"/><path class="cls-4" d="M336.5,293.31c-8.33,4.66-18.42,12-24.3,18.95l3.05-15.64-7.65-14C315.32,287.52,327.15,291.41,336.5,293.31Z"/><path class="cls-5" d="M217.83,327.73q2.78,1.09,5.61,2.12"/><path class="cls-6" d="M235.67,333.89c24.22,7.32,50,11.34,69.49,13.52"/><path class="cls-5" d="M311.56,348.08q3.15.32,6,.56"/><path class="cls-4" d="M336.5,349.9c-9.15,2.69-20.62,7.57-27.9,13.07l6.45-14.57-4.37-15.31C317.13,339.55,327.81,346,336.5,349.9Z"/><path class="cls-5" d="M212.35,218C247,206.72,251,199.24,315.15,196.44"/><path class="cls-4" d="M334.15,195.79c-8.81,3.66-19.69,9.75-26.33,16l4.84-15.18-6-14.76C313.77,187.59,325.08,192.82,334.15,195.79Z"/><path class="cls-7" d="M591.66,113.71c39.32,16.27,63.4,40.42,85.56,77.72"/><polygon class="cls-8" points="590.34 143.29 553.39 101.43 608.12 90.35 590.34 143.29"/><ellipse class="cls-9" cx="673.48" cy="272.59" rx="123.85" ry="123.16"/><path class="cls-10" d="M796.83,263.4c-4.44-64-58-114.58-123.52-114.58-66.94,0-121.44,52.82-123.74,118.83C632.36,273.72,715.07,279,796.83,263.4Z"/><rect class="cls-11" x="738.58" y="212.67" width="32.19" height="33.64"/><rect class="cls-12" x="574.81" y="212.67" width="165.1" height="33.64"/><circle class="cls-9" cx="159.07" cy="281.47" r="123.86"/><path class="cls-13" d="M281.81,299.52a125.37,125.37,0,0,0,1.31-18,123.86,123.86,0,1,0-245.37,24c.44.05.82.09,1.06.09C149.93,293,202.63,321.18,281.81,299.52Z"/><rect class="cls-14" x="227.69" y="248.08" width="30.85" height="34.03"/><rect class="cls-12" x="62.56" y="248.08" width="166.98" height="34.03"/><path class="cls-7" d="M322.29,95.25c-28-1.15-65.28,14-95.49,37.95"/><polygon class="cls-8" points="213.92 107.86 198.21 161.45 252.47 148.27 213.92 107.86"/><ellipse class="cls-15" cx="673.31" cy="273.41" rx="123.85" ry="123.16"/><rect class="cls-16" x="228.69" y="251.43" width="27.13" height="27.13"/><path class="cls-2" d="M565.36,714.25q0,13.34-12.22,22.79t-29.61,9.46a50.75,50.75,0,0,1-13-1.49q-5.16,13.8-19.74,22.23a63.07,63.07,0,0,1-32.55,8.66q-18.57,0-32.85-8.66a81.7,81.7,0,0,1-43.75,12.08,89.72,89.72,0,0,1-19.07-2,76.56,76.56,0,0,1-17.75-6.21q-17-8-25.63-22.33l-2.7.11h-3.2q-21.49,0-36.67-11.74t-15-28.37q0-16.18,14.29-27.58,14.29-11.62,34.76-12.31,1.49-13.78,15.17-23.47,13.41-9.92,32.26-9.92a57.78,57.78,0,0,1,21.8,4.22h0q16.5-16.07,42.87-16.07a64.75,64.75,0,0,1,30.78,7.41q13.85,7.07,20.18,19l8.1-.57a40.28,40.28,0,0,1,15.84,2.16,49.18,49.18,0,0,1,13.48,7.41q12.36,9.46,12.37,22.79,17.38,0,29.61,9.46T565.36,714.25Z"/><rect class="cls-17" x="65.94" y="251.43" width="27.13" height="27.13"/><rect class="cls-17" x="93.06" y="251.43" width="27.13" height="27.13"/><rect class="cls-17" x="120.19" y="251.43" width="27.13" height="27.13"/><rect class="cls-17" x="147.31" y="251.43" width="27.13" height="27.13"/><rect class="cls-17" x="174.44" y="251.43" width="27.13" height="27.13"/><rect class="cls-17" x="201.56" y="251.43" width="27.13" height="27.13"/><line class="cls-18" x1="228.69" y1="251.43" x2="255.81" y2="251.43"/><line class="cls-19" x1="228.69" y1="278.55" x2="255.81" y2="278.55"/><text class="cls-20" transform="translate(73.47 272.09)">1</text><text class="cls-20" transform="translate(94.58 272.09)">10</text><text class="cls-20" transform="translate(127.8 272.09)">4</text><text class="cls-20" transform="translate(149.91 272.09)">40</text><text class="cls-20" transform="translate(181.74 272.09)">3</text><text class="cls-20" transform="translate(203.97 272.09)">72</text><rect class="cls-21" x="742.12" y="216.24" width="27.12" height="26.97"/><rect class="cls-22" x="578.38" y="216.24" width="27.12" height="26.97"/><rect class="cls-22" x="605.5" y="216.24" width="27.12" height="26.97"/><rect class="cls-22" x="632.63" y="216.24" width="27.12" height="26.97"/><rect class="cls-22" x="659.75" y="216.24" width="27.12" height="26.97"/><rect class="cls-22" x="686.87" y="216.24" width="27.12" height="26.97"/><rect class="cls-22" x="713.99" y="216.24" width="27.12" height="26.97"/><line class="cls-23" x1="741.12" y1="216.24" x2="768.24" y2="216.24"/><line class="cls-24" x1="741.12" y1="243.21" x2="768.24" y2="243.21"/><text class="cls-25" transform="translate(585.91 236.78) scale(1.01 1)">7</text><text class="cls-25" transform="translate(608.02 236.78) scale(1.01 1)">67</text><text class="cls-25" transform="translate(640.25 236.78) scale(1.01 1)">3</text><text class="cls-25" transform="translate(662.35 236.78) scale(1.01 1)">56</text><text class="cls-25" transform="translate(694.18 236.78) scale(1.01 1)">0</text><text class="cls-25" transform="translate(716.41 236.78) scale(1.01 1)">13</text><rect class="cls-26" x="373.14" y="168.65" width="35.45" height="34.92" transform="translate(204.75 576.98) rotate(-90)"/><rect class="cls-26" x="373.14" y="391.7" width="35.45" height="34.92" transform="translate(-18.29 800.03) rotate(-90)"/><rect class="cls-26" x="442.45" y="391.7" width="35.45" height="34.92" transform="translate(51.02 869.34) rotate(-90)"/><rect class="cls-26" x="442.45" y="168.65" width="35.45" height="34.92" transform="translate(274.06 646.29) rotate(-90)"/><rect class="cls-27" x="331.28" y="220.53" width="187.11" height="151.99" transform="translate(128.31 721.36) rotate(-90)"/><rect class="cls-28" x="90.74" y="318.46" width="47.42" height="29.77" rx="1.5"/><rect class="cls-29" x="90.74" y="318.09" width="47.42" height="29.77" rx="1.5"/><polyline class="cls-30" points="91.39 318.81 114.28 332.98 137.18 318.81"/><text class="cls-31" transform="translate(103.14 343.54) scale(0.96 1)">[<tspan class="cls-32" x="3.62" y="0">tag</tspan><tspan x="19.94" y="0">]</tspan></text><circle class="cls-33" cx="159.24" cy="281.47" r="123.86"/><rect class="cls-34" x="367.79" y="215.94" width="110.87" height="28.91"/><text class="cls-35" transform="translate(383.12 238.01)">core 0</text><path class="cls-36" d="M381.87,772.26a75.63,75.63,0,0,1-16.75-1.85,69.08,69.08,0,0,1-15-5.26,59.92,59.92,0,0,1-12.6-8.24,48.62,48.62,0,0,1-9.57-11l-.07-.12c-1.19-2-3.34-4-10.18-4.08l-1.75.11h-2.39c-11.66,0-21.72-3.21-29.9-9.54s-12.49-14-12.49-23.25c0-8.48,3.89-16,11.54-22.4,7.66-6.21,17.25-9.6,28.58-10.16a11,11,0,0,0,6.24-2,6.83,6.83,0,0,0,2.89-4.73c1-7.9,5.22-14.42,12.62-19.27a45.18,45.18,0,0,1,25.3-7.38,49.85,49.85,0,0,1,17.27,3.22,12.6,12.6,0,0,0,4.53,1,9.65,9.65,0,0,0,7.22-2.83c9.24-8.8,21.22-13.24,35.64-13.24a58,58,0,0,1,13.36,1.52,51.14,51.14,0,0,1,12,4.44,45.16,45.16,0,0,1,9.83,6.91,35.21,35.21,0,0,1,7,9,8.48,8.48,0,0,0,3.62,3.54,7.72,7.72,0,0,0,3.79.94l.68,0,8.18-.46c.7,0,1.28,0,1.86,0A33.33,33.33,0,0,1,494.65,659a36.83,36.83,0,0,1,10.07,5.5l.11.09a27.87,27.87,0,0,1,6.91,7.88,19.31,19.31,0,0,1,2.51,9.69,5.69,5.69,0,0,0,.68,2.72,6.92,6.92,0,0,0,1.88,2.25,10.48,10.48,0,0,0,3.11,1.65,11.21,11.21,0,0,0,3.79.59,36.64,36.64,0,0,1,23,7.49c6.32,4.9,9.53,10.84,9.53,17.67s-3.17,12.65-9.42,17.69l-.23.17a37.41,37.41,0,0,1-22.87,7.18,36.54,36.54,0,0,1-9.13-1.11,14.89,14.89,0,0,0-3.83-.48,10.17,10.17,0,0,0-5.55,1.47,7.89,7.89,0,0,0-3.5,3.94,32.2,32.2,0,0,1-6.43,10.34,42.39,42.39,0,0,1-10,8,52.35,52.35,0,0,1-12.5,5.22,54.13,54.13,0,0,1-14.29,1.89,53.16,53.16,0,0,1-27.07-7.11,11.56,11.56,0,0,0-5.78-1.44,9.57,9.57,0,0,0-5.71,1.47l-.19.12C408.78,768.76,396.05,772.26,381.87,772.26Z"/><text class="cls-37" transform="translate(324.87 698.29) scale(0.96 1)">neighbor<tspan x="34.84" y="39.01">agent</tspan></text><path class="cls-38" d="M556.53,89.79q0,12.72-10.94,21.74t-26.5,9a43,43,0,0,1-11.6-1.41q-4.62,13.16-17.67,21.2a53.75,53.75,0,0,1-29.13,8.26q-16.62,0-29.4-8.26a69.78,69.78,0,0,1-39.16,11.53A75.5,75.5,0,0,1,375.06,150a66,66,0,0,1-15.89-5.92,52.84,52.84,0,0,1-22.93-21.32l-2.41.11H331q-19.24,0-32.82-11.2T284.69,84.57q0-15.45,12.79-26.32,12.78-11.08,31.11-11.74,1.32-13.15,13.58-22.4,12-9.46,28.87-9.46a48.93,48.93,0,0,1,19.51,4h0Q405.31,3.34,428.91,3.34a55.14,55.14,0,0,1,27.56,7.07q12.39,6.74,18.06,18.16l7.25-.55A33.75,33.75,0,0,1,496,30.09,43.21,43.21,0,0,1,508,37.16q11.07,9,11.07,21.74,15.55,0,26.5,9T556.53,89.79Z"/><path class="cls-39" d="M392.3,145.14a63.41,63.41,0,0,1-15-1.76,59.78,59.78,0,0,1-13.46-5,53.61,53.61,0,0,1-11.28-7.87A45.5,45.5,0,0,1,344,120l-.07-.12c-1.06-1.9-3-3.83-9.11-3.89l-1.56.11h-2.14c-10.44,0-19.44-3.07-26.77-9.11s-11.17-13.4-11.17-22.19c0-8.08,3.48-15.27,10.33-21.37,6.85-5.92,15.43-9.16,25.58-9.69a9.44,9.44,0,0,0,5.58-1.93,6.56,6.56,0,0,0,2.59-4.51c.87-7.54,4.67-13.76,11.29-18.39a38.62,38.62,0,0,1,22.65-7A42.18,42.18,0,0,1,386.66,25a10.66,10.66,0,0,0,4.06.95,8.38,8.38,0,0,0,6.46-2.69c8.27-8.4,19-12.64,31.9-12.64A49.09,49.09,0,0,1,441,12a44.43,44.43,0,0,1,10.74,4.23,40.62,40.62,0,0,1,8.79,6.6,33.56,33.56,0,0,1,6.3,8.61,7.79,7.79,0,0,0,3.24,3.37,6.47,6.47,0,0,0,3.39.9c.2,0,.4,0,.61,0l7.32-.44c.62,0,1.15,0,1.66,0a28.21,28.21,0,0,1,10.15,1.82,32.49,32.49,0,0,1,9,5.25l.1.08a26.26,26.26,0,0,1,6.19,7.52,19.47,19.47,0,0,1,2.25,9.25,5.87,5.87,0,0,0,.6,2.6,6.65,6.65,0,0,0,1.68,2.14,9.08,9.08,0,0,0,2.79,1.57,9.51,9.51,0,0,0,3.4.57,31.4,31.4,0,0,1,20.56,7.15c5.67,4.67,8.54,10.34,8.54,16.85s-2.84,12.08-8.44,16.89l-.2.16a32.08,32.08,0,0,1-20.46,6.85,31,31,0,0,1-8.18-1.06,12.78,12.78,0,0,0-3.43-.46,8.68,8.68,0,0,0-5,1.4,7.41,7.41,0,0,0-3.14,3.77,31.25,31.25,0,0,1-5.75,9.86,38.41,38.41,0,0,1-9,7.66,46.21,46.21,0,0,1-48.21,0,9.88,9.88,0,0,0-5.17-1.37,8.18,8.18,0,0,0-5.11,1.4l-.17.12C416.39,141.81,405,145.14,392.3,145.14Z"/><text class="cls-40" transform="translate(305.44 95.19)">enviroment</text><rect class="cls-34" x="367.79" y="251.08" width="110.87" height="28.91"/><text class="cls-35" transform="translate(383.12 274.89)">core 1</text><rect class="cls-34" x="367.79" y="286.17" width="110.87" height="28.91"/><text class="cls-35" transform="translate(383.12 309.7)">core 2</text><text class="cls-41" transform="translate(382.26 357.44) scale(0.96 1)">virtual<tspan class="cls-42"><tspan x="19.44" y="20">cpu</tspan></tspan></text><text class="cls-43" transform="translate(25.97 54.72) scale(0.96 1)">events &amp;<tspan x="8.29" y="38.18">sensors</tspan></text><text class="cls-44" transform="translate(645.16 58.61) scale(0.96 1)">output<tspan x="-26.3" y="36.06">registers</tspan></text><text class="cls-45" transform="translate(636.75 651.78) scale(0.96 1)">tagged<tspan class="cls-46"><tspan x="-37.35" y="36.06">messages</tspan></tspan></text><text class="cls-47" transform="translate(17.72 202.12) scale(0.96 1)">inputs</text><text class="cls-47" transform="translate(819.45 181.56) scale(0.96 1)">outputs</text><ellipse class="cls-48" cx="103.5" cy="216.96" rx="6.53" ry="7.86"/><ellipse class="cls-48" cx="103.5" cy="186.32" rx="2.97" ry="2.63"/><path class="cls-48" d="M103.5,220.82H119a2.27,2.27,0,0,0,2.28-2.81c-1-3.65-3.82-5.82-4.47-9.54v-9.08c0-6.93-6-12.54-13.34-12.54h0c-7.31,0-13.33,5.61-13.33,12.54v9.08c-.65,3.72-3.45,5.89-4.48,9.54A2.27,2.27,0,0,0,88,220.82Z"/><ellipse class="cls-49" cx="103.5" cy="216.38" rx="6.53" ry="7.86"/><ellipse class="cls-49" cx="103.5" cy="185.74" rx="2.97" ry="2.63"/><path class="cls-49" d="M103.5,220.23H119a2.26,2.26,0,0,0,2.28-2.81c-1-3.64-3.82-5.82-4.47-9.54V198.8c0-6.92-6-12.54-13.34-12.54h0c-7.31,0-13.33,5.62-13.33,12.54v9.08c-.65,3.72-3.45,5.9-4.48,9.54A2.26,2.26,0,0,0,88,220.23Z"/><path class="cls-50" d="M623.57,203.78a3.78,3.78,0,1,0-7.55,0c0,1.33,0,2.48,1.49,3v1a.77.77,0,0,0,1.53,0v0a.77.77,0,0,0,1.53,0v0a.77.77,0,0,0,1.53,0v-1C623.63,206.26,623.57,205.11,623.57,203.78Z"/><circle class="cls-51" cx="618.13" cy="203.3" r="1.19"/><path class="cls-51" d="M620.26,205.46a.49.49,0,0,0-.46-.25.49.49,0,0,0-.45.25.36.36,0,0,0,.19.69.37.37,0,0,0,.24-.23h0a.36.36,0,0,0,.68-.23A.37.37,0,0,0,620.26,205.46Zm2.41-2.16c0,.66,0,1.19-1.2,1.19s-1.19-.53-1.19-1.19a1.2,1.2,0,0,1,2.39,0Z"/><path class="cls-52" d="M625.31,207.31a1.36,1.36,0,0,0-.77.25l-1.18-1a2.44,2.44,0,0,1-1,.76,1,1,0,0,1,.08.4,1.13,1.13,0,0,1-.09.45l.73.86a1.31,1.31,0,0,0-.26.79,2,2,0,1,0,2.45-2.49Zm-11-6.12a1.34,1.34,0,0,0,.79-.26l1,.84a3.27,3.27,0,0,1,1.18-1.42l-.73-.85a1.81,1.81,0,1,0-2.22,1.69Zm9.32.59c.33-.3.66-.58,1-.83a1.3,1.3,0,0,0,.77.24,1.33,1.33,0,0,0,1.34-1.33h0a2.17,2.17,0,1,0-3.53-.36c-.22.27-.47.55-.73.85A3.26,3.26,0,0,1,623.58,201.78Zm-6.45,5.92a1,1,0,0,1,.07-.4,2.44,2.44,0,0,1-1-.76l-1.19,1a1.33,1.33,0,0,0-2.13,1.07,2,2,0,1,0,3.82,1.15h0a1.34,1.34,0,0,0-.26-.79l.74-.86A1.17,1.17,0,0,1,617.13,207.7Z"/><path class="cls-53" d="M696.59,209.79c0,.74-2.67.74-2.67,0v-3.33a1.34,1.34,0,1,1,2.67,0Z"/><path class="cls-51" d="M692.59,199.79a2.67,2.67,0,0,0-2.67,2.67v4h5.34v-4A2.67,2.67,0,0,0,692.59,199.79Z"/><path class="cls-50" d="M695.92,205a.76.76,0,0,1-.76.75H690a.76.76,0,0,1-.76-.75v-3.5a.76.76,0,0,1,.76-.75h5.14a.76.76,0,0,1,.76.75Z"/><path class="cls-54" d="M695.92,201.54a.76.76,0,0,0-.76-.75H690a.76.76,0,0,0-.76.75V202l1.62,1.63-1.59,1.61a.72.72,0,0,0,.2.32l1.65-1.66.81.8a.89.89,0,0,0,1.27,0h0l.81-.81,1.66,1.67a.83.83,0,0,0,.2-.32l-1.6-1.61,1.63-1.64Z"/><path class="cls-55" d="M695.16,200.79H690a.77.77,0,0,0-.76.68l2.8,2.8a.74.74,0,0,0,1.05,0l2.81-2.78A.76.76,0,0,0,695.16,200.79Z"/><path class="cls-54" d="M697.92,199.79h-5.33a2.67,2.67,0,0,1,2.67,2.67v4h5.33v-4A2.66,2.66,0,0,0,697.92,199.79Z"/><path class="cls-56" d="M697.92,199.12h-1.33a.67.67,0,0,0-.67.67v4a.67.67,0,0,0,1.34,0v-2.67h.66a.67.67,0,0,0,.67-.66v-.67A.67.67,0,0,0,697.92,199.12Z"/><rect class="cls-57" x="701.26" y="198.79" width="12" height="12" rx="1.33"/><path class="cls-58" d="M706.26,207.46a3.19,3.19,0,0,1-2.56-1.3.67.67,0,0,1,1.11-.74,1.85,1.85,0,0,0,1.45.7,1.8,1.8,0,0,0,1.44-.7.67.67,0,0,1,1.11.74A3.16,3.16,0,0,1,706.26,207.46Zm5.33-7h-4a.33.33,0,0,0-.33.33,2,2,0,0,0,0,.34h0c-.37,0-.67.15-.67.34s.3.33.67.33h4.33c.18,0,.33-.82.33-1A.33.33,0,0,0,711.59,200.46Zm0,2a2,2,0,1,1-4,0Z"/><path class="cls-58" d="M705.26,199.8l-2,.48-.15.07,1.81.43a.47.47,0,0,1,.34.42v1.94a.49.49,0,0,0,.33-.43V200A.24.24,0,0,0,705.26,199.8Zm6.27,5.72-3.94,3.94a.67.67,0,0,0,.67.66h2.66a.67.67,0,0,0,.67-.66v-3.67A.6.6,0,0,0,711.53,205.52Zm-.94-.4h-2.33a.67.67,0,0,0-.67.67v2.33Z"/><path class="cls-58" d="M704.59,204.37a.24.24,0,0,1-.33.24l-1.67-.47a.49.49,0,0,1-.33-.43V201a.24.24,0,0,1,.33-.24l1.67.48a.47.47,0,0,1,.33.43Z"/><path class="cls-53" d="M674.81,209.79c0,.74-2.67.74-2.67,0v-3.33a1.34,1.34,0,1,1,2.67,0Z"/><path class="cls-51" d="M670.81,199.79a2.67,2.67,0,0,0-2.67,2.67v4h5.34v-4A2.67,2.67,0,0,0,670.81,199.79Z"/><path class="cls-50" d="M674.14,205a.76.76,0,0,1-.76.75h-5.14a.76.76,0,0,1-.76-.75v-3.5a.76.76,0,0,1,.76-.75h5.14a.76.76,0,0,1,.76.75Z"/><path class="cls-54" d="M674.14,201.54a.76.76,0,0,0-.76-.75h-5.14a.76.76,0,0,0-.76.75V202l1.62,1.63-1.59,1.61a.83.83,0,0,0,.2.32l1.66-1.66.8.8a.89.89,0,0,0,1.27,0h0l.81-.81,1.66,1.67a.72.72,0,0,0,.2-.32l-1.6-1.61,1.63-1.64Z"/><path class="cls-55" d="M673.38,200.79h-5.14a.77.77,0,0,0-.76.68l2.81,2.8a.73.73,0,0,0,1,0l2.81-2.78A.76.76,0,0,0,673.38,200.79Z"/><path class="cls-54" d="M676.14,199.79h-5.33a2.67,2.67,0,0,1,2.67,2.67v4h5.33v-4A2.66,2.66,0,0,0,676.14,199.79Z"/><path class="cls-56" d="M676.14,199.12h-1.33a.67.67,0,0,0-.67.67v4a.67.67,0,1,0,1.34,0v-2.67h.66a.67.67,0,0,0,.67-.66v-.67A.67.67,0,0,0,676.14,199.12Z"/><rect class="cls-59" x="581.17" y="201.87" width="10.4" height="8.67" rx="1.39"/><path class="cls-59" d="M592.61,202.22a1.38,1.38,0,0,1-1.38,1.38h-9.71a1.39,1.39,0,1,1,0-2.77h9.71A1.38,1.38,0,0,1,592.61,202.22Z"/><rect class="cls-60" x="581.17" y="203.6" width="10.4" height="0.69"/><path class="cls-61" d="M586.72,199.44H586a1,1,0,0,0-1,1v10.06h2.77V200.48A1,1,0,0,0,586.72,199.44Z"/><path class="cls-61" d="M587.07,200.83c-.39,0-.44-.18-.13-.4l2.33-1.63a.62.62,0,0,1,.87.14l0,.06.7,1.23c.19.33,0,.6-.35.6Zm-1.39,0c.38,0,.44-.18.12-.4l-2.33-1.63a.63.63,0,0,0-.87.14l0,.06-.7,1.23c-.19.33,0,.6.35.6Z"/><path class="cls-62" d="M600.45,210.48c1.21-.4,2.13-1,2.13-3.25,0-1.39,1.48-2.93,1.48-4.35s-1.6-3.6-5.24-3.22-5.17,1.52-5.17,4c0,1.71,1.84,2.9,2.82,4.69C597.12,209.5,599.05,211.64,600.45,210.48Z"/><path class="cls-63" d="M601.72,199.64a3.34,3.34,0,0,0-1.86-.58,2.85,2.85,0,0,1,.29,0c.33,0,1.25-.43.48-.38a7.7,7.7,0,0,0-1,.15l.25-.16c0-.24-1.39-.24-2.09.35a2.85,2.85,0,0,0-1.38-.24c-.7,0-1.63.32-1,.35.32,0,.69,0,.64.12-.23,0-1.34.22-1.34.57,0,.12,1-.06,1,0-.59.22-1,.69-1,1,0,.15.77-.29,1-.35-.34.35-.48.59-.46.84s.83,0,.91,0a3.41,3.41,0,0,0,1.6-1,4.19,4.19,0,0,0,1.42.51c.19,0,.91.09.74-.25a3.92,3.92,0,0,1-.5-.78C599.6,199.79,602.32,200.14,601.72,199.64Z"/><path class="cls-64" d="M599.7,208.46a.42.42,0,1,1-.72.37.42.42,0,1,1,.72-.37ZM597,203.17h.1c.24,0,.35-.5.36-.67s0-.51-.27-.49h-.1c-.24,0-.35.5-.36.67S596.73,203.19,597,203.17Zm4.65,4.84c.33-.37.25-1.4-.28-.82C601,207.56,601.1,208.59,601.63,208ZM597,206h0l.48.24h0c-.1-.1-.47-.38-.62-.21s.17.49.28.59a.81.81,0,0,0,.5.26C598.14,206.81,597.37,205.94,597,206Zm3.43.42c.06-.67-.8-.95-.87-.17S600.4,207.17,600.47,206.38Zm2-1c.35-.54-.19-1.2-.62-.53S602,206,602.47,205.38Zm.46-3a.45.45,0,0,0-.13-.35c-.42-.3-.83.82-.48,1.07h0l-.12-.32v0c0,.2.13.48.38.33A.88.88,0,0,0,602.93,202.41Zm-2.5.51c.17-.34.06-1.38-.29-.68-.16.33-.06,1.37.29.68Zm-2,1.67a1.15,1.15,0,0,0-.24-.58c-.16-.19-.37-.12-.43.11a1,1,0,0,0,.21.83h0l-.23-.54h0c0,.23.13.6.39.66S598.46,204.75,598.44,204.59Zm-2.59-.19c-.05-.5-.88-1.13-.81-.34C595.09,204.56,595.92,205.18,595.85,204.4Z"/><polygon class="cls-54" points="641.16 205.23 641.91 204.12 642.91 205.12 644.25 204.46 645.25 205.46 646.58 203.46 647.91 204.46 648.91 204.12 649.58 205.12 650.58 204.12 651.25 205.46 650.58 207.79 646.91 209.46 643.25 208.79 641.25 206.79 641.16 205.23"/><path class="cls-65" d="M650.23,203.69a2.71,2.71,0,0,0,0-.29,4,4,0,0,0-3.33-3.94c.4-.08.68-.16.33-.34a.91.91,0,0,0-1,.28h0a.92.92,0,0,0-1-.28c-.34.18-.06.26.34.34a4,4,0,0,0-3.34,3.94,2.64,2.64,0,0,0,0,.29c-.16,2.2-2.1,5.43,4,5.43S650.39,205.89,650.23,203.69Z"/><path class="cls-66" d="M647.24,203.46c0,.55-.44.66-1,.66s-1-.11-1-.66a1,1,0,0,1,2,0Z"/><circle class="cls-67" cx="644.08" cy="202.62" r="0.5"/><circle class="cls-67" cx="648.41" cy="202.62" r="0.5"/><path class="cls-55" d="M650.58,207.12l-1-.33-1.34,2-1-1.67-.66.67-1.34-.67-1,1.34-1-2-1,.66-1.09-2.59a4.34,4.34,0,0,0-.24,1.43,5.36,5.36,0,0,0,10.67,0,4.7,4.7,0,0,0-.17-1.2Z"/><rect class="cls-50" x="723.35" y="198.79" width="10" height="12" rx="1.33"/><path class="cls-54" d="M732,205.46a.33.33,0,0,1-.33.33H725a.34.34,0,0,1,0-.67h6.67A.34.34,0,0,1,732,205.46Zm0-1.34a.34.34,0,0,1-.33.34H725a.34.34,0,0,1,0-.67h6.67A.33.33,0,0,1,732,204.12Zm0-1.33a.33.33,0,0,1-.33.33H725a.33.33,0,0,1,0-.66h6.67A.33.33,0,0,1,732,202.79Zm0-1.33a.33.33,0,0,1-.33.33H725a.34.34,0,0,1,0-.67h6.67A.34.34,0,0,1,732,201.46Zm-5.33,6.66a.34.34,0,0,1-.34.34H725a.34.34,0,0,1,0-.67h1.33A.34.34,0,0,1,726.69,208.12Zm5.33-1.33a.33.33,0,0,1-.33.33H725a.33.33,0,0,1,0-.66h6.67A.33.33,0,0,1,732,206.79Z"/><path class="cls-68" d="M733.35,200.88a.72.72,0,0,0-.84,0l-.26.22-.5.4,0,0-.79.64-4,3.23a2,2,0,0,0-.39.69,15,15,0,0,0-.48,1.47c-.05.08-.36.61-.19.82s.78,0,.86,0c.54-.06,1.24-.12,1.55-.19a2.1,2.1,0,0,0,.76-.25h0l3.95-3.22.26-.22.05,0Z"/><path class="cls-69" d="M729.07,206.3a6.2,6.2,0,0,0-1.56-1.56.38.38,0,0,0-.54,0,2.32,2.32,0,0,0-.39.76c-.16.38-.43,1.39-.59,1.92,0,.09.17-.15.17-.07a.62.62,0,0,0,0,.19l0,.06.07,0a.19.19,0,0,1,0,.07l.06-.05a.62.62,0,0,0,.19,0c.08,0-.16.2-.07.17.53-.16,1.54-.43,1.92-.59a2.53,2.53,0,0,0,.76-.39A.38.38,0,0,0,729.07,206.3Z"/><path class="cls-70" d="M731.46,200.24a.73.73,0,0,0,0,1h0l1,1a.75.75,0,0,0,1.06,0l1-1a.74.74,0,0,0,0-1.06l-1-1.06a.75.75,0,0,0-1.06,0h0Z"/><polygon class="cls-65" points="726.97 204.73 728.03 205.78 729.08 206.84 733.04 202.88 730.93 200.77 726.97 204.73"/><path class="cls-51" d="M726.79,207.7s-.69.38-.88.2.2-.87.2-.87A.69.69,0,0,1,726.79,207.7Z"/><rect class="cls-50" x="731.71" y="199.67" width="1.87" height="2.99" transform="translate(72.37 577.02) rotate(-45)"/><path class="cls-54" d="M731.19,200.5l.27-.26,2.11,2.11-.27.27Zm.53-.52.26-.27,2.12,2.11-.27.27Z"/><path class="cls-71" d="M73.49,236a3.39,3.39,0,0,0,6.76,0v-4.5H73.49Z"/><path class="cls-72" d="M80.25,236a3.39,3.39,0,0,1-6.76,0v-1.95a6.37,6.37,0,0,0,4.61-1.88,2.06,2.06,0,0,0,2.15,1.58Zm-1.56-5.94a3.13,3.13,0,0,0-.44,0,3.49,3.49,0,0,0-1.61-.4,4.08,4.08,0,0,0-4,4v3.15a4.28,4.28,0,1,0,8.56,0v-4.5A2.31,2.31,0,0,0,78.69,230.1Z"/><path class="cls-73" d="M80.25,239.64H73c-.8,0-.87.54-.87,1.34v5H81.6v-5A1.19,1.19,0,0,0,80.25,239.64Z"/><path class="cls-74" d="M73.94,241.45h.46V246h-.46Zm5.41,0h.46V246h-.46Z"/><path class="cls-71" d="M75.74,238.29v1.35a1.13,1.13,0,1,0,2.25,0v-1.35Z"/><path class="cls-61" d="M75.41,237.74h2.91a1.56,1.56,0,0,1-1.45.73A1.59,1.59,0,0,1,75.41,237.74Z"/><path class="cls-75" d="M77.09,236.72h-.45a.22.22,0,0,1-.22-.23.22.22,0,0,1,.22-.22h.45a.23.23,0,1,1,0,.45Z"/><path class="cls-67" d="M78.44,235.59a.45.45,0,0,1-.45-.45v-.45a.46.46,0,0,1,.91,0v.45A.46.46,0,0,1,78.44,235.59Zm-3.15,0a.45.45,0,0,1-.45-.45v-.45a.45.45,0,1,1,.9,0v.45A.45.45,0,0,1,75.29,235.59Z"/><path class="cls-71" d="M86.55,241.47v0h0v-2.71H85a3.22,3.22,0,0,0-3.11,0H80.25v2.71h0v0a3.15,3.15,0,0,0,6.3,0Z"/><path class="cls-66" d="M84,244.53a1.44,1.44,0,0,0-.19.52,8.23,8.23,0,0,0,4.05-1.35,24.65,24.65,0,0,1-.75-3.67,3.54,3.54,0,0,0-3.54-3.54h0a3.54,3.54,0,0,0-1.56.37,2.75,2.75,0,0,0-2.7,2.82,2.57,2.57,0,0,0,.2,1,24.08,24.08,0,0,1-.65,3,8.19,8.19,0,0,0,4,1.35,1.52,1.52,0,0,0-.2-.52,3.12,3.12,0,0,1-2.5-3.06v0h0v-1.37a6,6,0,0,0,4.14-1.5,4.25,4.25,0,0,0,2.16,1.47v1.4h0v0A3.13,3.13,0,0,1,84,244.53Z"/><polygon class="cls-71" points="84.3 245.5 84.3 243.7 82.5 243.7 82.5 245.5 82.05 245.5 82.05 245.95 84.75 245.95 84.75 245.5 84.3 245.5"/><path class="cls-70" d="M83.4,246h4a2,2,0,0,0-1.72-1.35H84.3Z"/><path class="cls-70" d="M81.6,244.6A2.18,2.18,0,0,0,79.43,246h4l-.9-1.35Z"/><path class="cls-75" d="M83.4,243a.2.2,0,0,1-.16-.07.21.21,0,0,1-.07-.15.28.28,0,0,1,.07-.17.24.24,0,0,1,.32,0,.23.23,0,0,1,.06.16.2.2,0,0,1-.06.15A.2.2,0,0,1,83.4,243Zm1.35.23h-2.7a1.46,1.46,0,0,0,2.7,0Z"/><path class="cls-67" d="M84.75,242.35a.45.45,0,0,1-.45-.45v-.45a.45.45,0,1,1,.9,0v.45A.45.45,0,0,1,84.75,242.35Zm-2.7,0a.45.45,0,0,1-.45-.45v-.45a.45.45,0,1,1,.9,0v.45A.45.45,0,0,1,82.05,242.35Z"/><rect class="cls-57" x="205.76" y="233.54" width="12" height="12" rx="1.33"/><path class="cls-58" d="M210.76,242.21a3.18,3.18,0,0,1-2.56-1.3.67.67,0,0,1,1.11-.74,1.83,1.83,0,0,0,1.45.71,1.8,1.8,0,0,0,1.44-.71.67.67,0,0,1,1.11.74A3.13,3.13,0,0,1,210.76,242.21Zm5.33-7h-4a.33.33,0,0,0-.33.33,2,2,0,0,0,0,.34h0c-.37,0-.67.15-.67.33s.3.33.67.33h4.33c.19,0,.33-.81.33-1A.33.33,0,0,0,216.09,235.21Zm0,2a2,2,0,0,1-4,0Z"/><path class="cls-58" d="M209.76,234.56l-2,.47a.39.39,0,0,0-.14.08l1.8.42a.47.47,0,0,1,.34.43v1.93a.47.47,0,0,0,.33-.43v-2.67A.24.24,0,0,0,209.76,234.56Zm6.27,5.71-3.94,3.94a.67.67,0,0,0,.67.67h2.66a.67.67,0,0,0,.67-.67v-3.67A.6.6,0,0,0,216,240.27Zm-.94-.39h-2.33a.66.66,0,0,0-.67.66v2.34Z"/><path class="cls-58" d="M209.09,239.13a.24.24,0,0,1-.33.24l-1.67-.48a.47.47,0,0,1-.33-.43v-2.67a.24.24,0,0,1,.33-.23l1.67.47a.48.48,0,0,1,.33.43Z"/><circle class="cls-54" cx="223.76" cy="239.54" r="6"/><circle class="cls-55" cx="223.76" cy="239.54" r="4.67"/><path class="cls-68" d="M224.09,239.54a.34.34,0,1,1-.67,0v-3.66a.34.34,0,1,1,.67,0Z"/><path class="cls-68" d="M226.64,241.21a.33.33,0,0,1-.45.12h0l-2.6-1.5a.33.33,0,0,1,.33-.58h0l2.6,1.5a.33.33,0,0,1,.12.46Z"/><rect class="cls-57" x="123.36" y="233.54" width="12" height="12" rx="1.33"/><path class="cls-58" d="M128.36,242.21a3.13,3.13,0,0,1-2.55-1.3A.65.65,0,0,1,126,240a.67.67,0,0,1,.92.18,1.78,1.78,0,0,0,1.44.71,1.85,1.85,0,0,0,1.45-.71.67.67,0,0,1,1.11.74A3.18,3.18,0,0,1,128.36,242.21Zm5.33-7h-4a.33.33,0,0,0-.33.33,2.28,2.28,0,0,0,0,.34h0c-.37,0-.67.15-.67.33s.3.33.67.33h4.33c.19,0,.34-.81.34-1A.34.34,0,0,0,133.69,235.21Zm0,2a2,2,0,0,1-4,0Z"/><path class="cls-58" d="M127.36,234.56l-2,.47a.39.39,0,0,0-.14.08l1.81.42a.47.47,0,0,1,.33.43v1.93a.46.46,0,0,0,.33-.43v-2.67A.23.23,0,0,0,127.36,234.56Zm6.27,5.71-3.94,3.94a.67.67,0,0,0,.67.67H133a.66.66,0,0,0,.66-.67v-3.67A.6.6,0,0,0,133.63,240.27Zm-.94-.39h-2.33a.66.66,0,0,0-.67.66v2.34Z"/><path class="cls-58" d="M126.69,239.13a.24.24,0,0,1-.33.24l-1.67-.48a.47.47,0,0,1-.33-.43v-2.67a.24.24,0,0,1,.33-.23l1.67.47a.47.47,0,0,1,.33.43Z"/><path class="cls-62" d="M142.9,245.16c1.15-.39,2-1,2-3.13,0-1.33,1.42-2.82,1.42-4.18s-1.54-3.46-5-3.1-5,1.46-5,3.82c0,1.64,1.77,2.79,2.71,4.5C139.69,244.21,141.54,246.27,142.9,245.16Z"/><path class="cls-63" d="M144.11,234.73a3.3,3.3,0,0,0-1.78-.56l.27,0c.33,0,1.21-.41.47-.36-.32,0-.64.09-.95.14l.25-.15c0-.23-1.34-.23-2,.34a2.66,2.66,0,0,0-1.32-.23c-.67,0-1.56.3-1,.33.3,0,.66,0,.62.12-.22,0-1.29.21-1.29.55,0,.11.92-.06,1,0-.57.21-1,.66-1,1,0,.14.74-.28,1-.34-.33.34-.47.57-.45.81s.8,0,.88,0a3.16,3.16,0,0,0,1.53-.91,4.55,4.55,0,0,0,1.37.49c.18,0,.88.09.72-.24a3.25,3.25,0,0,1-.48-.76C142.07,234.88,144.69,235.21,144.11,234.73Z"/><path class="cls-64" d="M142.18,243.21a.47.47,0,0,1-.11.64.46.46,0,0,1-.58-.28.46.46,0,0,1,.1-.64A.48.48,0,0,1,142.18,243.21Zm-2.62-5.08h.09c.24,0,.34-.48.35-.65s0-.49-.26-.47h-.09c-.24,0-.34.48-.35.65S139.31,238.14,139.56,238.13Zm4.47,4.65c.32-.35.24-1.35-.27-.79C143.44,242.34,143.52,243.34,144,242.78Zm-4.41-2h0l.46.24h0c-.1-.1-.45-.36-.6-.2s.17.47.27.57a.82.82,0,0,0,.48.24C140.68,241.63,139.94,240.79,139.62,240.81Zm3.3.41c.05-.65-.77-.92-.84-.17S142.85,242,142.92,241.22Zm1.91-1c.34-.52-.18-1.15-.59-.51S144.42,240.89,144.83,240.25Zm.45-2.85a.43.43,0,0,0-.13-.34c-.4-.29-.79.79-.46,1h0l-.11-.31v0c0,.19.12.46.36.32A.86.86,0,0,0,145.28,237.4Zm-2.4.48c.16-.32.05-1.32-.28-.65C142.44,237.55,142.54,238.55,142.88,237.88ZM141,239.5a1,1,0,0,0-.23-.56.22.22,0,0,0-.41.1,1,1,0,0,0,.2.79l0,0c-.08-.17-.15-.35-.22-.52h0c0,.21.14.58.38.64S141,239.65,141,239.5Zm-2.49-.19c0-.49-.84-1.08-.77-.33C137.74,239.46,138.54,240.06,138.47,239.31Z"/><path class="cls-62" d="M105.68,245.16c1.16-.39,2-1,2-3.13,0-1.33,1.43-2.82,1.42-4.18s-1.53-3.46-5-3.1-5,1.46-5,3.82c0,1.64,1.77,2.79,2.71,4.5C102.48,244.21,104.33,246.27,105.68,245.16Z"/><path class="cls-63" d="M106.9,234.73a3.36,3.36,0,0,0-1.79-.56l.28,0c.32,0,1.2-.41.46-.36-.32,0-.63.09-.94.14l.24-.15c0-.23-1.34-.23-2,.34a2.73,2.73,0,0,0-1.33-.23c-.66,0-1.56.3-1,.33.31,0,.67,0,.62.12-.22,0-1.28.21-1.28.55,0,.11.92-.06,1,0-.58.21-1,.66-1,1,0,.14.73-.28,1-.34-.34.34-.47.57-.45.81s.79,0,.88,0a3.25,3.25,0,0,0,1.53-.91,4.55,4.55,0,0,0,1.37.49c.17,0,.87.09.71-.24a3.62,3.62,0,0,1-.48-.76C104.86,234.88,107.48,235.21,106.9,234.73Z"/><path class="cls-64" d="M105,243.21a.47.47,0,0,1-.11.64.46.46,0,0,1-.58-.28.47.47,0,0,1,.11-.64A.47.47,0,0,1,105,243.21Zm-2.62-5.08h.1c.23,0,.33-.48.35-.65s0-.49-.27-.47h-.09c-.23,0-.33.48-.35.65S102.1,238.14,102.34,238.13Zm4.47,4.65c.32-.35.24-1.35-.26-.79C106.22,242.34,106.3,243.34,106.81,242.78Zm-4.41-2h0l.45.24h0c-.1-.1-.45-.36-.59-.2s.16.47.27.57a.79.79,0,0,0,.47.24C103.46,241.63,102.72,240.79,102.4,240.81Zm3.3.41c.06-.65-.77-.92-.84-.17S105.63,242,105.7,241.22Zm1.92-1c.34-.52-.18-1.15-.6-.51S107.21,240.89,107.62,240.25Zm.45-2.85a.44.44,0,0,0-.14-.34c-.39-.29-.79.79-.46,1h0l-.11-.31v0c0,.19.13.46.36.32A.85.85,0,0,0,108.07,237.4Zm-2.41.48c.16-.32.06-1.32-.28-.65C105.23,237.55,105.33,238.55,105.66,237.88Zm-1.92,1.62a1,1,0,0,0-.22-.56.23.23,0,0,0-.42.1.94.94,0,0,0,.21.79v0l-.21-.52h0c0,.21.13.58.38.64S103.76,239.65,103.74,239.5Zm-2.48-.19c-.05-.49-.85-1.08-.78-.33C100.53,239.46,101.33,240.06,101.26,239.31Z"/><circle class="cls-54" cx="160.06" cy="239.54" r="6"/><circle class="cls-55" cx="160.06" cy="239.54" r="4.67"/><path class="cls-68" d="M160.39,239.54a.33.33,0,1,1-.66,0v-3.66a.33.33,0,1,1,.66,0Z"/><path class="cls-68" d="M163,241.21a.34.34,0,0,1-.46.12h0l-2.6-1.5a.33.33,0,0,1-.12-.45.34.34,0,0,1,.46-.13h0l2.6,1.5a.35.35,0,0,1,.12.46Z"/><rect class="cls-50" x="182.07" y="233.54" width="10" height="12" rx="1.33"/><path class="cls-54" d="M190.74,240.21a.33.33,0,0,1-.33.33h-6.67a.33.33,0,1,1,0-.66h6.67A.33.33,0,0,1,190.74,240.21Zm0-1.33a.33.33,0,0,1-.33.33h-6.67a.34.34,0,0,1,0-.67h6.67A.34.34,0,0,1,190.74,238.88Zm0-1.34a.34.34,0,0,1-.33.34h-6.67a.34.34,0,0,1,0-.67h6.67A.33.33,0,0,1,190.74,237.54Zm0-1.33a.33.33,0,0,1-.33.33h-6.67a.33.33,0,1,1,0-.66h6.67A.33.33,0,0,1,190.74,236.21Zm-5.33,6.67a.34.34,0,0,1-.34.33h-1.33a.34.34,0,0,1,0-.67h1.33A.34.34,0,0,1,185.41,242.88Zm5.33-1.34a.34.34,0,0,1-.33.34h-6.67a.34.34,0,0,1,0-.67h6.67A.33.33,0,0,1,190.74,241.54Z"/><path class="cls-68" d="M192.07,235.63a.7.7,0,0,0-.84,0l-.26.21-.5.4,0,0-.79.65-4,3.23a2,2,0,0,0-.39.69c-.13.28-.32.95-.48,1.46,0,.08-.36.62-.19.82s.78,0,.86,0c.54-.05,1.24-.12,1.55-.19a2.1,2.1,0,0,0,.76-.25h0l3.95-3.22.27-.22,0,0Z"/><path class="cls-69" d="M187.79,241.05a6.2,6.2,0,0,0-1.56-1.56.39.39,0,0,0-.54,0,2.8,2.8,0,0,0-.39.76c-.16.39-.43,1.39-.59,1.92,0,.09.17-.15.17-.07a.71.71,0,0,0,0,.2l-.05.05.07,0,0,.07.05-.05a.63.63,0,0,0,.19,0c.08,0-.16.19-.07.16.53-.16,1.54-.43,1.92-.59a2.32,2.32,0,0,0,.76-.39A.38.38,0,0,0,187.79,241.05Z"/><path class="cls-70" d="M190.18,235a.75.75,0,0,0,0,1.06h0l1,1a.74.74,0,0,0,1.06,0l1.06-1a.75.75,0,0,0,0-1.06l-1.06-1.05a.75.75,0,0,0-1.06,0h0Z"/><polygon class="cls-65" points="185.69 239.48 186.75 240.54 187.8 241.59 191.76 237.63 189.65 235.52 185.69 239.48"/><path class="cls-51" d="M185.51,242.46s-.69.37-.88.19.2-.87.2-.87A.69.69,0,0,1,185.51,242.46Z"/><rect class="cls-50" x="190.43" y="234.42" width="1.87" height="2.99" transform="translate(-110.77 204.41) rotate(-45)"/><path class="cls-54" d="M189.91,235.26l.27-.27,2.11,2.11-.26.27Zm.53-.53.26-.27,2.12,2.12-.27.26Z"/><path class="cls-76" d="M623.57,203.78a3.78,3.78,0,1,0-7.55,0c0,1.33,0,2.48,1.49,3v1a.77.77,0,0,0,1.53,0v0a.77.77,0,0,0,1.53,0v0a.77.77,0,0,0,1.53,0v-1C623.63,206.26,623.57,205.11,623.57,203.78Z"/><circle class="cls-77" cx="618.13" cy="203.3" r="1.19"/><path class="cls-77" d="M620.26,205.46a.49.49,0,0,0-.46-.25.49.49,0,0,0-.45.25.36.36,0,0,0,.19.69.37.37,0,0,0,.24-.23h0a.36.36,0,0,0,.68-.23A.37.37,0,0,0,620.26,205.46Zm2.41-2.16c0,.66,0,1.19-1.2,1.19s-1.19-.53-1.19-1.19a1.2,1.2,0,0,1,2.39,0Z"/><path class="cls-78" d="M625.31,207.31a1.36,1.36,0,0,0-.77.25l-1.18-1a2.44,2.44,0,0,1-1,.76,1,1,0,0,1,.08.4,1.13,1.13,0,0,1-.09.45l.73.86a1.31,1.31,0,0,0-.26.79,2,2,0,1,0,2.45-2.49Zm-11-6.12a1.34,1.34,0,0,0,.79-.26l1,.84a3.27,3.27,0,0,1,1.18-1.42l-.73-.85a1.81,1.81,0,1,0-2.22,1.69Zm9.32.59c.33-.3.66-.58,1-.83a1.3,1.3,0,0,0,.77.24,1.33,1.33,0,0,0,1.34-1.33h0a2.17,2.17,0,1,0-3.53-.36c-.22.27-.47.55-.73.85A3.26,3.26,0,0,1,623.58,201.78Zm-6.45,5.92a1,1,0,0,1,.07-.4,2.44,2.44,0,0,1-1-.76l-1.19,1a1.33,1.33,0,0,0-2.13,1.07,2,2,0,1,0,3.82,1.15h0a1.34,1.34,0,0,0-.26-.79l.74-.86A1.17,1.17,0,0,1,617.13,207.7Z"/><path class="cls-79" d="M696.59,209.79c0,.74-2.67.74-2.67,0v-3.33a1.34,1.34,0,1,1,2.67,0Z"/><path class="cls-77" d="M692.59,199.79a2.67,2.67,0,0,0-2.67,2.67v4h5.34v-4A2.67,2.67,0,0,0,692.59,199.79Z"/><path class="cls-76" d="M695.92,205a.76.76,0,0,1-.76.75H690a.76.76,0,0,1-.76-.75v-3.5a.76.76,0,0,1,.76-.75h5.14a.76.76,0,0,1,.76.75Z"/><path class="cls-80" d="M695.92,201.54a.76.76,0,0,0-.76-.75H690a.76.76,0,0,0-.76.75V202l1.62,1.63-1.59,1.61a.72.72,0,0,0,.2.32l1.65-1.66.81.8a.89.89,0,0,0,1.27,0h0l.81-.81,1.66,1.67a.83.83,0,0,0,.2-.32l-1.6-1.61,1.63-1.64Z"/><path class="cls-81" d="M695.16,200.79H690a.77.77,0,0,0-.76.68l2.8,2.8a.74.74,0,0,0,1.05,0l2.81-2.78A.76.76,0,0,0,695.16,200.79Z"/><path class="cls-80" d="M697.92,199.79h-5.33a2.67,2.67,0,0,1,2.67,2.67v4h5.33v-4A2.66,2.66,0,0,0,697.92,199.79Z"/><path class="cls-82" d="M697.92,199.12h-1.33a.67.67,0,0,0-.67.67v4a.67.67,0,0,0,1.34,0v-2.67h.66a.67.67,0,0,0,.67-.66v-.67A.67.67,0,0,0,697.92,199.12Z"/><rect class="cls-83" x="701.26" y="198.79" width="12" height="12" rx="1.33"/><path class="cls-84" d="M706.26,207.46a3.19,3.19,0,0,1-2.56-1.3.67.67,0,0,1,1.11-.74,1.85,1.85,0,0,0,1.45.7,1.8,1.8,0,0,0,1.44-.7.67.67,0,0,1,1.11.74A3.16,3.16,0,0,1,706.26,207.46Zm5.33-7h-4a.33.33,0,0,0-.33.33,2,2,0,0,0,0,.34h0c-.37,0-.67.15-.67.34s.3.33.67.33h4.33c.18,0,.33-.82.33-1A.33.33,0,0,0,711.59,200.46Zm0,2a2,2,0,1,1-4,0Z"/><path class="cls-84" d="M705.26,199.8l-2,.48-.15.07,1.81.43a.47.47,0,0,1,.34.42v1.94a.49.49,0,0,0,.33-.43V200A.24.24,0,0,0,705.26,199.8Zm6.27,5.72-3.94,3.94a.67.67,0,0,0,.67.66h2.66a.67.67,0,0,0,.67-.66v-3.67A.6.6,0,0,0,711.53,205.52Zm-.94-.4h-2.33a.67.67,0,0,0-.67.67v2.33Z"/><path class="cls-84" d="M704.59,204.37a.24.24,0,0,1-.33.24l-1.67-.47a.49.49,0,0,1-.33-.43V201a.24.24,0,0,1,.33-.24l1.67.48a.47.47,0,0,1,.33.43Z"/><path class="cls-79" d="M674.81,209.79c0,.74-2.67.74-2.67,0v-3.33a1.34,1.34,0,1,1,2.67,0Z"/><path class="cls-77" d="M670.81,199.79a2.67,2.67,0,0,0-2.67,2.67v4h5.34v-4A2.67,2.67,0,0,0,670.81,199.79Z"/><path class="cls-76" d="M674.14,205a.76.76,0,0,1-.76.75h-5.14a.76.76,0,0,1-.76-.75v-3.5a.76.76,0,0,1,.76-.75h5.14a.76.76,0,0,1,.76.75Z"/><path class="cls-80" d="M674.14,201.54a.76.76,0,0,0-.76-.75h-5.14a.76.76,0,0,0-.76.75V202l1.62,1.63-1.59,1.61a.83.83,0,0,0,.2.32l1.66-1.66.8.8a.89.89,0,0,0,1.27,0h0l.81-.81,1.66,1.67a.72.72,0,0,0,.2-.32l-1.6-1.61,1.63-1.64Z"/><path class="cls-81" d="M673.38,200.79h-5.14a.77.77,0,0,0-.76.68l2.81,2.8a.73.73,0,0,0,1,0l2.81-2.78A.76.76,0,0,0,673.38,200.79Z"/><path class="cls-80" d="M676.14,199.79h-5.33a2.67,2.67,0,0,1,2.67,2.67v4h5.33v-4A2.66,2.66,0,0,0,676.14,199.79Z"/><path class="cls-82" d="M676.14,199.12h-1.33a.67.67,0,0,0-.67.67v4a.67.67,0,1,0,1.34,0v-2.67h.66a.67.67,0,0,0,.67-.66v-.67A.67.67,0,0,0,676.14,199.12Z"/><rect class="cls-85" x="581.17" y="201.87" width="10.4" height="8.67" rx="1.39"/><path class="cls-85" d="M592.61,202.22a1.38,1.38,0,0,1-1.38,1.38h-9.71a1.39,1.39,0,1,1,0-2.77h9.71A1.38,1.38,0,0,1,592.61,202.22Z"/><rect class="cls-86" x="581.17" y="203.6" width="10.4" height="0.69"/><path class="cls-87" d="M586.72,199.44H586a1,1,0,0,0-1,1v10.06h2.77V200.48A1,1,0,0,0,586.72,199.44Z"/><path class="cls-87" d="M587.07,200.83c-.39,0-.44-.18-.13-.4l2.33-1.63a.62.62,0,0,1,.87.14l0,.06.7,1.23c.19.33,0,.6-.35.6Zm-1.39,0c.38,0,.44-.18.12-.4l-2.33-1.63a.63.63,0,0,0-.87.14l0,.06-.7,1.23c-.19.33,0,.6.35.6Z"/><path class="cls-88" d="M600.45,210.48c1.21-.4,2.13-1,2.13-3.25,0-1.39,1.48-2.93,1.48-4.35s-1.6-3.6-5.24-3.22-5.17,1.52-5.17,4c0,1.71,1.84,2.9,2.82,4.69C597.12,209.5,599.05,211.64,600.45,210.48Z"/><path class="cls-89" d="M601.72,199.64a3.34,3.34,0,0,0-1.86-.58,2.85,2.85,0,0,1,.29,0c.33,0,1.25-.43.48-.38a7.7,7.7,0,0,0-1,.15l.25-.16c0-.24-1.39-.24-2.09.35a2.85,2.85,0,0,0-1.38-.24c-.7,0-1.63.32-1,.35.32,0,.69,0,.64.12-.23,0-1.34.22-1.34.57,0,.12,1-.06,1,0-.59.22-1,.69-1,1,0,.15.77-.29,1-.35-.34.35-.48.59-.46.84s.83,0,.91,0a3.41,3.41,0,0,0,1.6-1,4.19,4.19,0,0,0,1.42.51c.19,0,.91.09.74-.25a3.92,3.92,0,0,1-.5-.78C599.6,199.79,602.32,200.14,601.72,199.64Z"/><path class="cls-90" d="M599.7,208.46a.42.42,0,1,1-.72.37.42.42,0,1,1,.72-.37ZM597,203.17h.1c.24,0,.35-.5.36-.67s0-.51-.27-.49h-.1c-.24,0-.35.5-.36.67S596.73,203.19,597,203.17Zm4.65,4.84c.33-.37.25-1.4-.28-.82C601,207.56,601.1,208.59,601.63,208ZM597,206h0l.48.24h0c-.1-.1-.47-.38-.62-.21s.17.49.28.59a.81.81,0,0,0,.5.26C598.14,206.81,597.37,205.94,597,206Zm3.43.42c.06-.67-.8-.95-.87-.17S600.4,207.17,600.47,206.38Zm2-1c.35-.54-.19-1.2-.62-.53S602,206,602.47,205.38Zm.46-3a.45.45,0,0,0-.13-.35c-.42-.3-.83.82-.48,1.07h0l-.12-.32v0c0,.2.13.48.38.33A.88.88,0,0,0,602.93,202.41Zm-2.5.51c.17-.34.06-1.38-.29-.68C600,202.57,600.08,203.61,600.43,202.92Zm-2,1.67a1.15,1.15,0,0,0-.24-.58c-.16-.19-.37-.12-.43.11a1,1,0,0,0,.21.83h0l-.23-.54h0c0,.23.13.6.39.66S598.46,204.75,598.44,204.59Zm-2.59-.19c-.05-.5-.88-1.13-.81-.34C595.09,204.56,595.92,205.18,595.85,204.4Z"/><polygon class="cls-80" points="641.16 205.23 641.91 204.12 642.91 205.12 644.25 204.46 645.25 205.46 646.58 203.46 647.91 204.46 648.91 204.12 649.58 205.12 650.58 204.12 651.25 205.46 650.58 207.79 646.91 209.46 643.25 208.79 641.25 206.79 641.16 205.23"/><path class="cls-91" d="M650.23,203.69a2.71,2.71,0,0,0,0-.29,4,4,0,0,0-3.33-3.94c.4-.08.68-.16.33-.34a.91.91,0,0,0-1,.28h0a.92.92,0,0,0-1-.28c-.34.18-.06.26.34.34a4,4,0,0,0-3.34,3.94,2.64,2.64,0,0,0,0,.29c-.16,2.2-2.1,5.43,4,5.43S650.39,205.89,650.23,203.69Z"/><path class="cls-92" d="M647.24,203.46c0,.55-.44.66-1,.66s-1-.11-1-.66a1,1,0,0,1,2,0Z"/><circle class="cls-93" cx="644.08" cy="202.62" r="0.5"/><circle class="cls-93" cx="648.41" cy="202.62" r="0.5"/><path class="cls-81" d="M650.58,207.12l-1-.33-1.34,2-1-1.67-.66.67-1.34-.67-1,1.34-1-2-1,.66-1.09-2.59a4.34,4.34,0,0,0-.24,1.43,5.36,5.36,0,0,0,10.67,0,4.7,4.7,0,0,0-.17-1.2Z"/><rect class="cls-76" x="723.35" y="198.79" width="10" height="12" rx="1.33"/><path class="cls-80" d="M732,205.46a.33.33,0,0,1-.33.33H725a.34.34,0,0,1,0-.67h6.67A.34.34,0,0,1,732,205.46Zm0-1.34a.34.34,0,0,1-.33.34H725a.34.34,0,0,1,0-.67h6.67A.33.33,0,0,1,732,204.12Zm0-1.33a.33.33,0,0,1-.33.33H725a.33.33,0,0,1,0-.66h6.67A.33.33,0,0,1,732,202.79Zm0-1.33a.33.33,0,0,1-.33.33H725a.34.34,0,0,1,0-.67h6.67A.34.34,0,0,1,732,201.46Zm-5.33,6.66a.34.34,0,0,1-.34.34H725a.34.34,0,0,1,0-.67h1.33A.34.34,0,0,1,726.69,208.12Zm5.33-1.33a.33.33,0,0,1-.33.33H725a.33.33,0,0,1,0-.66h6.67A.33.33,0,0,1,732,206.79Z"/><path class="cls-94" d="M733.35,200.88a.72.72,0,0,0-.84,0l-.26.22-.5.4,0,0-.79.64-4,3.23a2,2,0,0,0-.39.69,15,15,0,0,0-.48,1.47c-.05.08-.36.61-.19.82s.78,0,.86,0c.54-.06,1.24-.12,1.55-.19a2.1,2.1,0,0,0,.76-.25h0l3.95-3.22.26-.22.05,0Z"/><path class="cls-95" d="M729.07,206.3a6.2,6.2,0,0,0-1.56-1.56.38.38,0,0,0-.54,0,2.32,2.32,0,0,0-.39.76c-.16.38-.43,1.39-.59,1.92,0,.09.17-.15.17-.07a.62.62,0,0,0,0,.19l0,.06.07,0a.19.19,0,0,1,0,.07l.06-.05a.62.62,0,0,0,.19,0c.08,0-.16.2-.07.17.53-.16,1.54-.43,1.92-.59a2.53,2.53,0,0,0,.76-.39A.38.38,0,0,0,729.07,206.3Z"/><path class="cls-96" d="M731.46,200.24a.73.73,0,0,0,0,1h0l1,1a.75.75,0,0,0,1.06,0l1-1a.74.74,0,0,0,0-1.06l-1-1.06a.75.75,0,0,0-1.06,0h0Z"/><polygon class="cls-91" points="726.97 204.73 728.03 205.78 729.08 206.84 733.04 202.88 730.93 200.77 726.97 204.73"/><path class="cls-77" d="M726.79,207.7s-.69.38-.88.2.2-.87.2-.87A.69.69,0,0,1,726.79,207.7Z"/><rect class="cls-76" x="731.71" y="199.67" width="1.87" height="2.99" transform="translate(72.37 577.02) rotate(-45)"/><path class="cls-80" d="M731.19,200.5l.27-.26,2.11,2.11-.27.27Zm.53-.52.26-.27,2.12,2.11-.27.27Z"/><path class="cls-97" d="M72.47,296.07V288.4h3.26a5.88,5.88,0,0,1,1.79.2,1.78,1.78,0,0,1,.89.74,2.14,2.14,0,0,1,.34,1.21,2,2,0,0,1-.51,1.42,2.42,2.42,0,0,1-1.52.71,3.52,3.52,0,0,1,.83.65,8.1,8.1,0,0,1,.88,1.24l.94,1.5H77.52L76.4,294.4a10.75,10.75,0,0,0-.82-1.13,1.24,1.24,0,0,0-.46-.32,2.57,2.57,0,0,0-.78-.08H74v3.2ZM74,291.64h1.15a6.15,6.15,0,0,0,1.39-.09.84.84,0,0,0,.43-.33.94.94,0,0,0,.16-.57A1,1,0,0,0,77,290a1,1,0,0,0-.59-.3c-.12,0-.5,0-1.13,0H74Z"/><path class="cls-97" d="M82.37,288.37a2.09,2.09,0,0,1,1.74.79,5.07,5.07,0,0,1,.75,3.12,5,5,0,0,1-.76,3.13,2.06,2.06,0,0,1-1.73.79,2.21,2.21,0,0,1-1.81-.86,5.17,5.17,0,0,1-.68-3.07,5.11,5.11,0,0,1,.75-3.12A2.09,2.09,0,0,1,82.37,288.37Zm0,1.22a.71.71,0,0,0-.48.17,1.06,1.06,0,0,0-.32.61,7.77,7.77,0,0,0-.16,1.91,8.39,8.39,0,0,0,.14,1.86,1.33,1.33,0,0,0,.34.67.75.75,0,0,0,1,0,1.16,1.16,0,0,0,.33-.61,8.5,8.5,0,0,0,.15-1.92,8.35,8.35,0,0,0-.14-1.85,1.25,1.25,0,0,0-.34-.67A.7.7,0,0,0,82.37,289.59Z"/><path class="cls-97" d="M100.93,296.07V288.4h3.26a5.92,5.92,0,0,1,1.79.2,1.83,1.83,0,0,1,.89.74,2.22,2.22,0,0,1,.33,1.21,2,2,0,0,1-.51,1.42,2.39,2.39,0,0,1-1.51.71,3.74,3.74,0,0,1,.83.65,8.88,8.88,0,0,1,.88,1.24l.93,1.5H106l-1.12-1.67a11.24,11.24,0,0,0-.81-1.13,1.27,1.27,0,0,0-.47-.32,2.49,2.49,0,0,0-.78-.08h-.31v3.2Zm1.55-4.43h1.14a6.27,6.27,0,0,0,1.4-.09.88.88,0,0,0,.43-.33,1,1,0,0,0,.16-.57.92.92,0,0,0-.21-.63.93.93,0,0,0-.58-.3c-.13,0-.51,0-1.13,0h-1.21Z"/><path class="cls-97" d="M112.1,296.07h-1.47v-5.54a5.1,5.1,0,0,1-1.9,1.11v-1.33a4.45,4.45,0,0,0,1.25-.72,2.76,2.76,0,0,0,.93-1.22h1.19Z"/><path class="cls-97" d="M127.81,296.07V288.4h3.26a5.8,5.8,0,0,1,1.78.2,1.78,1.78,0,0,1,.89.74,2.14,2.14,0,0,1,.34,1.21,2,2,0,0,1-.51,1.42,2.42,2.42,0,0,1-1.51.71,3.46,3.46,0,0,1,.82.65,8,8,0,0,1,.89,1.24l.93,1.5h-1.85l-1.12-1.67a10.75,10.75,0,0,0-.82-1.13,1.24,1.24,0,0,0-.46-.32,2.49,2.49,0,0,0-.78-.08h-.31v3.2Zm1.55-4.43h1.14a6.15,6.15,0,0,0,1.39-.09.86.86,0,0,0,.44-.33,1,1,0,0,0,.15-.57.92.92,0,0,0-.2-.63.93.93,0,0,0-.59-.3c-.12,0-.5,0-1.13,0h-1.2Z"/><path class="cls-97" d="M140.18,294.7v1.37H135a3.43,3.43,0,0,1,.5-1.47,9.82,9.82,0,0,1,1.65-1.84,11,11,0,0,0,1.22-1.25,1.66,1.66,0,0,0,.3-.9,1,1,0,0,0-.26-.76,1.14,1.14,0,0,0-1.46,0,1.45,1.45,0,0,0-.32.92l-1.46-.14a2.4,2.4,0,0,1,.82-1.74,2.72,2.72,0,0,1,1.73-.53,2.48,2.48,0,0,1,1.78.61,2,2,0,0,1,.65,1.52,2.57,2.57,0,0,1-.19,1,4.11,4.11,0,0,1-.58,1,10.47,10.47,0,0,1-1,1c-.46.42-.76.7-.88.84a3.26,3.26,0,0,0-.3.41Z"/><path class="cls-97" d="M153.84,296.07V288.4h3.26a5.88,5.88,0,0,1,1.79.2,1.78,1.78,0,0,1,.89.74,2.14,2.14,0,0,1,.34,1.21,2,2,0,0,1-.51,1.42,2.42,2.42,0,0,1-1.52.71,3.52,3.52,0,0,1,.83.65,8.1,8.1,0,0,1,.88,1.24l.94,1.5h-1.85l-1.12-1.67a10.75,10.75,0,0,0-.82-1.13,1.24,1.24,0,0,0-.46-.32,2.57,2.57,0,0,0-.78-.08h-.32v3.2Zm1.55-4.43h1.15a6.15,6.15,0,0,0,1.39-.09.86.86,0,0,0,.44-.33,1,1,0,0,0,.15-.57,1,1,0,0,0-.2-.63,1,1,0,0,0-.59-.3c-.12,0-.5,0-1.13,0h-1.21Z"/><path class="cls-97" d="M161.2,294l1.42-.17a1.37,1.37,0,0,0,.37.83,1,1,0,0,0,1.49-.06,1.37,1.37,0,0,0,.31-.93,1.25,1.25,0,0,0-.3-.88,1,1,0,0,0-.73-.32,2.65,2.65,0,0,0-.67.11l.16-1.2a1.26,1.26,0,0,0,.91-.26.9.9,0,0,0,.31-.73.79.79,0,0,0-.84-.84.86.86,0,0,0-.64.26,1.22,1.22,0,0,0-.33.76l-1.35-.23a3,3,0,0,1,.43-1.11,1.91,1.91,0,0,1,.79-.66,2.8,2.8,0,0,1,1.14-.23,2.28,2.28,0,0,1,1.74.69,1.78,1.78,0,0,1,.54,1.27,1.8,1.8,0,0,1-1.1,1.61,1.82,1.82,0,0,1,1.05.64,1.85,1.85,0,0,1,.39,1.19,2.31,2.31,0,0,1-.73,1.72,2.77,2.77,0,0,1-3.57.11A2.36,2.36,0,0,1,161.2,294Z"/><path class="cls-97" d="M181.74,296.07V288.4H185a5.88,5.88,0,0,1,1.79.2,1.78,1.78,0,0,1,.89.74,2.22,2.22,0,0,1,.34,1.21,2,2,0,0,1-.51,1.42,2.44,2.44,0,0,1-1.52.71,3.52,3.52,0,0,1,.83.65,8.1,8.1,0,0,1,.88,1.24l.94,1.5h-1.85l-1.12-1.67a10.75,10.75,0,0,0-.82-1.13,1.33,1.33,0,0,0-.46-.32,2.57,2.57,0,0,0-.78-.08h-.32v3.2Zm1.55-4.43h1.15a6.22,6.22,0,0,0,1.39-.09.84.84,0,0,0,.43-.33.94.94,0,0,0,.16-.57.92.92,0,0,0-.21-.63.91.91,0,0,0-.58-.3c-.13,0-.5,0-1.13,0h-1.21Z"/><path class="cls-97" d="M192,296.07v-1.55h-3.14v-1.28l3.33-4.87h1.24v4.86h.95v1.29h-.95v1.55Zm0-2.84v-2.62l-1.76,2.62Z"/><path class="cls-97" d="M208.55,296.45v-7.67h3.26a5.44,5.44,0,0,1,1.78.21,1.83,1.83,0,0,1,.9.73,2.27,2.27,0,0,1,.33,1.21,2.05,2.05,0,0,1-.51,1.43,2.47,2.47,0,0,1-1.51.71,3.43,3.43,0,0,1,.82.64,8.53,8.53,0,0,1,.89,1.24l.93,1.5h-1.85l-1.12-1.67c-.4-.59-.67-1-.81-1.13a1.2,1.2,0,0,0-.47-.31,2.42,2.42,0,0,0-.78-.09h-.31v3.2ZM210.1,292h1.14a5.86,5.86,0,0,0,1.39-.1.85.85,0,0,0,.44-.32,1.06,1.06,0,0,0,.15-.58.87.87,0,0,0-.2-.62.93.93,0,0,0-.59-.3,11.26,11.26,0,0,0-1.13,0h-1.2Z"/><path class="cls-97" d="M216,294.48l1.46-.15a1.25,1.25,0,0,0,.37.78,1,1,0,0,0,1.49-.08,1.66,1.66,0,0,0,.32-1.13,1.56,1.56,0,0,0-.31-1.06,1.09,1.09,0,0,0-.83-.35,1.49,1.49,0,0,0-1.13.56l-1.2-.17.76-4h3.88v1.37H218l-.23,1.3a2.27,2.27,0,0,1,1-.24,2.2,2.2,0,0,1,1.65.71,2.53,2.53,0,0,1,.68,1.85,2.76,2.76,0,0,1-.55,1.69,2.43,2.43,0,0,1-2.07,1,2.56,2.56,0,0,1-1.73-.57A2.3,2.3,0,0,1,216,294.48Z"/><path class="cls-97" d="M239.21,296.07V294.6h1.47v1.47Z"/><path class="cls-97" d="M242.19,296.07V294.6h1.47v1.47Z"/><path class="cls-97" d="M245.17,296.07V294.6h1.47v1.47Z"/><path class="cls-98" d="M409.12,331.27V324.4h6.59v6.87Z"/><path class="cls-98" d="M421.94,331.27V324.4h6.59v6.87Z"/><path class="cls-98" d="M434.75,331.27V324.4h6.6v6.87Z"/><text class="cls-99" transform="translate(405.68 331.27) scale(0.96 1)">...</text><rect class="cls-28" x="176.33" y="315.46" width="47.42" height="29.77" rx="1.5"/><rect class="cls-29" x="176.33" y="315.09" width="47.42" height="29.77" rx="1.5"/><polyline class="cls-30" points="176.98 315.81 199.88 329.97 222.77 315.81"/><text class="cls-31" transform="translate(188.74 340.54) scale(0.96 1)">[<tspan class="cls-32" x="3.62" y="0">tag</tspan><tspan x="19.94" y="0">]</tspan></text><rect class="cls-28" x="135.53" y="358.75" width="47.42" height="29.77" rx="1.5"/><rect class="cls-29" x="135.53" y="358.38" width="47.42" height="29.77" rx="1.5"/><polyline class="cls-30" points="136.17 359.1 159.07 373.27 181.97 359.1"/><text class="cls-31" transform="translate(147.93 383.83) scale(0.96 1)">[<tspan class="cls-32" x="3.62" y="0">tag</tspan><tspan x="19.94" y="0">]</tspan></text><rect class="cls-100" x="594.12" y="281.18" width="62.29" height="39.1" rx="1.5"/><rect class="cls-101" x="594.12" y="280.69" width="62.29" height="39.1" rx="1.5"/><polyline class="cls-102" points="594.97 281.64 625.04 300.25 655.12 281.64"/><text class="cls-103" transform="translate(610.41 314.12) scale(0.96 1)">[<tspan class="cls-104" x="4.76" y="0">tag</tspan><tspan x="26.19" y="0">]</tspan></text><rect class="cls-100" x="687.64" y="281.43" width="62.29" height="39.1" rx="1.5"/><rect class="cls-101" x="687.64" y="280.94" width="62.29" height="39.1" rx="1.5"/><polyline class="cls-102" points="688.49 281.88 718.56 300.49 748.63 281.88"/><text class="cls-103" transform="translate(703.93 314.37) scale(0.96 1)">[<tspan class="cls-104" x="4.76" y="0">tag</tspan><tspan x="26.19" y="0">]</tspan></text><rect class="cls-105" x="634.21" y="336.82" width="66.54" height="41.77" rx="1.5"/><rect class="cls-106" x="634.21" y="336.29" width="66.54" height="41.77" rx="1.5"/><polyline class="cls-107" points="635.11 337.3 667.24 357.18 699.37 337.3"/><text class="cls-108" transform="translate(651.61 372.01) scale(0.96 1)">[<tspan class="cls-32" x="5.08" y="0">tag</tspan><tspan x="27.98" y="0">]</tspan></text><text class="cls-109" transform="translate(93.99 211.01) scale(1.01 1)">[<tspan class="cls-32" x="2.95" y="0">tag</tspan><tspan x="16.23" y="0">]</tspan></text><ellipse class="cls-48" cx="156.06" cy="205.76" rx="6.53" ry="7.86"/><ellipse class="cls-48" cx="156.06" cy="175.12" rx="2.97" ry="2.63"/><path class="cls-48" d="M156.06,209.62h15.53a2.27,2.27,0,0,0,2.28-2.81c-1-3.65-3.82-5.82-4.47-9.54v-9.08c0-6.93-6-12.54-13.34-12.54h0c-7.31,0-13.34,5.61-13.34,12.54v9.08c-.65,3.72-3.44,5.89-4.47,9.54a2.27,2.27,0,0,0,2.28,2.81Z"/><ellipse class="cls-49" cx="156.06" cy="205.18" rx="6.53" ry="7.86"/><ellipse class="cls-49" cx="156.06" cy="174.54" rx="2.97" ry="2.63"/><path class="cls-49" d="M156.06,209h15.53a2.26,2.26,0,0,0,2.28-2.81c-1-3.64-3.82-5.82-4.47-9.54V187.6c0-6.92-6-12.54-13.34-12.54h0c-7.31,0-13.34,5.62-13.34,12.54v9.08c-.65,3.72-3.44,5.9-4.47,9.54a2.26,2.26,0,0,0,2.28,2.81Z"/><text class="cls-109" transform="translate(146.34 201.92) scale(1.01 1)">[<tspan class="cls-32" x="2.95" y="0">tag</tspan><tspan x="16.23" y="0">]</tspan></text><path class="cls-110" d="M98.72,194.22a2.74,2.74,0,0,0,5.46,0v-3.64H98.72Z"/><path class="cls-111" d="M104.18,194.22a2.74,2.74,0,0,1-5.46,0v-1.58a5.15,5.15,0,0,0,3.73-1.52,1.66,1.66,0,0,0,1.73,1.28Zm-1.26-4.8-.36,0a2.69,2.69,0,0,0-1.29-.33A3.31,3.31,0,0,0,98,192.4V195a3.46,3.46,0,1,0,6.92,0v-3.64A1.86,1.86,0,0,0,102.92,189.42Z"/><path class="cls-112" d="M104.18,197.13H98.35c-.64,0-.7.44-.7,1.08v4h7.62v-4A1,1,0,0,0,104.18,197.13Z"/><path class="cls-113" d="M99.08,198.59h.38v3.64h-.38Zm4.37,0h.38v3.64h-.38Z"/><path class="cls-110" d="M100.54,196v1.09a.91.91,0,0,0,1.82,0V196Z"/><path class="cls-87" d="M100.27,195.59h2.36a1.47,1.47,0,0,1-2.36,0Z"/><path class="cls-114" d="M101.63,194.77h-.36a.2.2,0,0,1-.19-.19.19.19,0,0,1,.19-.18h.36a.18.18,0,0,1,.18.18A.19.19,0,0,1,101.63,194.77Z"/><path class="cls-93" d="M102.72,193.85a.36.36,0,0,1-.36-.36v-.36a.37.37,0,0,1,.36-.37.38.38,0,0,1,.37.37v.36A.37.37,0,0,1,102.72,193.85Zm-2.55,0a.36.36,0,0,1-.36-.36v-.36a.37.37,0,1,1,.73,0v.36A.36.36,0,0,1,100.17,193.85Z"/><path class="cls-110" d="M109.28,198.61v0h0V196.4H108a2.55,2.55,0,0,0-2.51,0h-1.29v2.19h0v0a2.52,2.52,0,0,0,2,2.47,2.28,2.28,0,0,0,1,0A2.53,2.53,0,0,0,109.28,198.61Z"/><path class="cls-92" d="M107.25,201.08a1.19,1.19,0,0,0-.16.42,6.65,6.65,0,0,0,3.28-1.09,20.47,20.47,0,0,1-.61-3,2.86,2.86,0,0,0-2.86-2.87h0a2.75,2.75,0,0,0-1.26.3,2.24,2.24,0,0,0-2.19,2.28,2.38,2.38,0,0,0,.17.8,19.44,19.44,0,0,1-.53,2.45,6.65,6.65,0,0,0,3.28,1.09,1.43,1.43,0,0,0-.16-.42,2.52,2.52,0,0,1-2-2.47v0h0v-1.11a4.82,4.82,0,0,0,3.35-1.21,3.43,3.43,0,0,0,1.75,1.19v1.13h0v0A2.53,2.53,0,0,1,107.25,201.08Z"/><polygon class="cls-110" points="107.46 201.87 107.46 200.41 106 200.41 106 201.87 105.64 201.87 105.64 202.23 107.82 202.23 107.82 201.87 107.46 201.87"/><path class="cls-96" d="M106.73,202.23h3.21a1.6,1.6,0,0,0-1.39-1.09h-1.09Z"/><path class="cls-96" d="M105.27,201.14a1.77,1.77,0,0,0-1.75,1.09h3.21l-.73-1.09Z"/><path class="cls-114" d="M106.73,199.86a.17.17,0,0,1-.18-.18.21.21,0,0,1,0-.13.2.2,0,0,1,.26,0,.21.21,0,0,1,0,.13.19.19,0,0,1,0,.13A.21.21,0,0,1,106.73,199.86Zm1.09.19h-2.18a1.19,1.19,0,0,0,2.18,0Z"/><path class="cls-93" d="M107.82,199.32a.37.37,0,0,1-.36-.37v-.36a.37.37,0,0,1,.36-.37.38.38,0,0,1,.37.37V199A.38.38,0,0,1,107.82,199.32Zm-2.18,0a.38.38,0,0,1-.37-.37v-.36a.38.38,0,0,1,.37-.37.37.37,0,0,1,.36.37V199A.37.37,0,0,1,105.64,199.32Z"/><path class="cls-88" d="M157.88,190.77c1.15-.39,2-1,2-3.13,0-1.34,1.42-2.82,1.42-4.18s-1.54-3.46-5-3.1-5,1.46-5,3.82c0,1.64,1.77,2.79,2.71,4.5C154.67,189.82,156.52,191.88,157.88,190.77Z"/><path class="cls-89" d="M159.09,180.34a3.14,3.14,0,0,0-1.78-.56l.27,0c.33,0,1.21-.41.47-.36a9.43,9.43,0,0,0-1,.14l.25-.15c0-.23-1.34-.23-2,.33a2.81,2.81,0,0,0-1.32-.23c-.67,0-1.56.31-1,.34.3,0,.66,0,.62.12-.22,0-1.29.21-1.29.54,0,.12.92,0,1,0-.57.22-1,.67-1,1,0,.15.74-.27,1-.33-.33.33-.47.57-.45.81s.8,0,.88-.06a3.26,3.26,0,0,0,1.53-.9,4.32,4.32,0,0,0,1.37.48c.18,0,.88.1.72-.23a3.25,3.25,0,0,1-.48-.76C157.05,180.49,159.67,180.82,159.09,180.34Z"/><path class="cls-90" d="M157.16,188.82a.47.47,0,0,1-.11.64.48.48,0,0,1-.59-.28.47.47,0,0,1,.11-.64A.48.48,0,0,1,157.16,188.82Zm-2.62-5.08h.09c.24,0,.34-.49.35-.65s0-.49-.26-.47h-.09c-.24,0-.34.48-.35.65S154.29,183.75,154.54,183.74Zm4.47,4.65c.32-.36.24-1.35-.27-.79C158.42,188,158.5,189,159,188.39Zm-4.41-2h0l.46.24h0c-.1-.09-.45-.36-.6-.19s.17.47.27.57a.82.82,0,0,0,.48.24C155.66,187.24,154.92,186.4,154.6,186.42Zm3.3.4c0-.64-.77-.91-.84-.16S157.83,187.58,157.9,186.82Zm1.91-1c.34-.52-.18-1.15-.59-.51S159.4,186.5,159.81,185.86Zm.45-2.86c0-.11,0-.26-.13-.33-.4-.29-.79.78-.46,1l0,0-.11-.31v0c0,.19.12.46.36.31A.84.84,0,0,0,160.26,183Zm-2.4.49c.16-.32,0-1.32-.28-.65C157.42,183.16,157.52,184.16,157.86,183.49Zm-1.92,1.61a1,1,0,0,0-.23-.55c-.15-.19-.36-.12-.41.1a1,1,0,0,0,.2.79v0l-.21-.53v0c0,.21.14.58.38.64S156,185.26,155.94,185.1Zm-2.49-.18c0-.49-.84-1.08-.77-.33C152.72,185.07,153.52,185.67,153.45,184.92Z"/><ellipse class="cls-48" cx="208.12" cy="213.7" rx="6.53" ry="7.86"/><ellipse class="cls-48" cx="208.12" cy="183.06" rx="2.97" ry="2.63"/><path class="cls-48" d="M208.12,217.56h15.54a2.27,2.27,0,0,0,2.28-2.81c-1-3.65-3.83-5.82-4.48-9.54v-9.08c0-6.93-6-12.54-13.34-12.54h0c-7.31,0-13.33,5.61-13.33,12.54v9.08c-.65,3.72-3.45,5.89-4.48,9.54a2.26,2.26,0,0,0,2.28,2.81Z"/><ellipse class="cls-49" cx="208.12" cy="213.12" rx="6.53" ry="7.86"/><ellipse class="cls-49" cx="208.12" cy="182.48" rx="2.97" ry="2.63"/><path class="cls-49" d="M208.12,217h15.54a2.27,2.27,0,0,0,2.28-2.81c-1-3.64-3.83-5.82-4.48-9.54v-9.08c0-6.92-6-12.54-13.34-12.54h0c-7.31,0-13.33,5.62-13.33,12.54v9.08c-.65,3.72-3.45,5.9-4.48,9.54a2.26,2.26,0,0,0,2.28,2.81Z"/><text class="cls-109" transform="translate(198.61 207.75) scale(1.01 1)">[<tspan class="cls-32" x="2.95" y="0">tag</tspan><tspan x="16.23" y="0">]</tspan></text><circle class="cls-80" cx="207.92" cy="193.43" r="6"/><circle class="cls-81" cx="207.92" cy="193.43" r="4.67"/><path class="cls-94" d="M208.25,193.43a.33.33,0,0,1-.33.33.33.33,0,0,1-.33-.33v-3.67a.33.33,0,0,1,.33-.33.33.33,0,0,1,.33.33Z"/><path class="cls-94" d="M210.81,195.09a.34.34,0,0,1-.46.13h0l-2.6-1.5a.34.34,0,1,1,.34-.58h0l2.59,1.5a.33.33,0,0,1,.13.45Z"/><path class="cls-110" d="M73.49,236a3.39,3.39,0,0,0,6.76,0v-4.5H73.49Z"/><path class="cls-111" d="M80.25,236a3.39,3.39,0,0,1-6.76,0v-1.95a6.37,6.37,0,0,0,4.61-1.88,2.06,2.06,0,0,0,2.15,1.58Zm-1.56-5.94a3.13,3.13,0,0,0-.44,0,3.49,3.49,0,0,0-1.61-.4,4.08,4.08,0,0,0-4,4v3.15a4.28,4.28,0,1,0,8.56,0v-4.5A2.31,2.31,0,0,0,78.69,230.1Z"/><path class="cls-112" d="M80.25,239.64H73c-.8,0-.87.54-.87,1.34v5H81.6v-5A1.19,1.19,0,0,0,80.25,239.64Z"/><path class="cls-113" d="M73.94,241.45h.46V246h-.46Zm5.41,0h.46V246h-.46Z"/><path class="cls-110" d="M75.74,238.29v1.35a1.13,1.13,0,1,0,2.25,0v-1.35Z"/><path class="cls-87" d="M75.41,237.74h2.91a1.56,1.56,0,0,1-1.45.73A1.59,1.59,0,0,1,75.41,237.74Z"/><path class="cls-114" d="M77.09,236.72h-.45a.22.22,0,0,1-.22-.23.22.22,0,0,1,.22-.22h.45a.23.23,0,1,1,0,.45Z"/><path class="cls-93" d="M78.44,235.59a.45.45,0,0,1-.45-.45v-.45a.46.46,0,0,1,.91,0v.45A.46.46,0,0,1,78.44,235.59Zm-3.15,0a.45.45,0,0,1-.45-.45v-.45a.45.45,0,1,1,.9,0v.45A.45.45,0,0,1,75.29,235.59Z"/><path class="cls-110" d="M86.55,241.47v0h0v-2.71H85a3.22,3.22,0,0,0-3.11,0H80.25v2.71h0v0a3.15,3.15,0,0,0,6.3,0Z"/><path class="cls-92" d="M84,244.53a1.44,1.44,0,0,0-.19.52,8.23,8.23,0,0,0,4.05-1.35,24.65,24.65,0,0,1-.75-3.67,3.54,3.54,0,0,0-3.54-3.54h0a3.54,3.54,0,0,0-1.56.37,2.75,2.75,0,0,0-2.7,2.82,2.57,2.57,0,0,0,.2,1,24.08,24.08,0,0,1-.65,3,8.19,8.19,0,0,0,4,1.35,1.52,1.52,0,0,0-.2-.52,3.12,3.12,0,0,1-2.5-3.06v0h0v-1.37a6,6,0,0,0,4.14-1.5,4.25,4.25,0,0,0,2.16,1.47v1.4h0v0A3.13,3.13,0,0,1,84,244.53Z"/><polygon class="cls-110" points="84.3 245.5 84.3 243.7 82.5 243.7 82.5 245.5 82.05 245.5 82.05 245.95 84.75 245.95 84.75 245.5 84.3 245.5"/><path class="cls-96" d="M83.4,246h4a2,2,0,0,0-1.72-1.35H84.3Z"/><path class="cls-96" d="M81.6,244.6A2.18,2.18,0,0,0,79.43,246h4l-.9-1.35Z"/><path class="cls-114" d="M83.4,243a.2.2,0,0,1-.16-.07.21.21,0,0,1-.07-.15.28.28,0,0,1,.07-.17.24.24,0,0,1,.32,0,.23.23,0,0,1,.06.16.2.2,0,0,1-.06.15A.2.2,0,0,1,83.4,243Zm1.35.23h-2.7a1.46,1.46,0,0,0,2.7,0Z"/><path class="cls-93" d="M84.75,242.35a.45.45,0,0,1-.45-.45v-.45a.45.45,0,1,1,.9,0v.45A.45.45,0,0,1,84.75,242.35Zm-2.7,0a.45.45,0,0,1-.45-.45v-.45a.45.45,0,1,1,.9,0v.45A.45.45,0,0,1,82.05,242.35Z"/><rect class="cls-83" x="205.76" y="233.54" width="12" height="12" rx="1.33"/><path class="cls-84" d="M210.76,242.21a3.18,3.18,0,0,1-2.56-1.3.67.67,0,0,1,1.11-.74,1.83,1.83,0,0,0,1.45.71,1.8,1.8,0,0,0,1.44-.71.67.67,0,0,1,1.11.74A3.13,3.13,0,0,1,210.76,242.21Zm5.33-7h-4a.33.33,0,0,0-.33.33,2,2,0,0,0,0,.34h0c-.37,0-.67.15-.67.33s.3.33.67.33h4.33c.19,0,.33-.81.33-1A.33.33,0,0,0,216.09,235.21Zm0,2a2,2,0,0,1-4,0Z"/><path class="cls-84" d="M209.76,234.56l-2,.47a.39.39,0,0,0-.14.08l1.8.42a.47.47,0,0,1,.34.43v1.93a.47.47,0,0,0,.33-.43v-2.67A.24.24,0,0,0,209.76,234.56Zm6.27,5.71-3.94,3.94a.67.67,0,0,0,.67.67h2.66a.67.67,0,0,0,.67-.67v-3.67A.6.6,0,0,0,216,240.27Zm-.94-.39h-2.33a.66.66,0,0,0-.67.66v2.34Z"/><path class="cls-84" d="M209.09,239.13a.24.24,0,0,1-.33.24l-1.67-.48a.47.47,0,0,1-.33-.43v-2.67a.24.24,0,0,1,.33-.23l1.67.47a.48.48,0,0,1,.33.43Z"/><circle class="cls-80" cx="223.76" cy="239.54" r="6"/><circle class="cls-81" cx="223.76" cy="239.54" r="4.67"/><path class="cls-94" d="M224.09,239.54a.34.34,0,1,1-.67,0v-3.66a.34.34,0,1,1,.67,0Z"/><path class="cls-94" d="M226.64,241.21a.33.33,0,0,1-.45.12h0l-2.6-1.5a.33.33,0,0,1,.33-.58h0l2.6,1.5a.33.33,0,0,1,.12.46Z"/><rect class="cls-83" x="123.36" y="233.54" width="12" height="12" rx="1.33"/><path class="cls-84" d="M128.36,242.21a3.13,3.13,0,0,1-2.55-1.3A.65.65,0,0,1,126,240a.67.67,0,0,1,.92.18,1.78,1.78,0,0,0,1.44.71,1.85,1.85,0,0,0,1.45-.71.67.67,0,0,1,1.11.74A3.18,3.18,0,0,1,128.36,242.21Zm5.33-7h-4a.33.33,0,0,0-.33.33,2.28,2.28,0,0,0,0,.34h0c-.37,0-.67.15-.67.33s.3.33.67.33h4.33c.19,0,.34-.81.34-1A.34.34,0,0,0,133.69,235.21Zm0,2a2,2,0,0,1-4,0Z"/><path class="cls-84" d="M127.36,234.56l-2,.47a.39.39,0,0,0-.14.08l1.81.42a.47.47,0,0,1,.33.43v1.93a.46.46,0,0,0,.33-.43v-2.67A.23.23,0,0,0,127.36,234.56Zm6.27,5.71-3.94,3.94a.67.67,0,0,0,.67.67H133a.66.66,0,0,0,.66-.67v-3.67A.6.6,0,0,0,133.63,240.27Zm-.94-.39h-2.33a.66.66,0,0,0-.67.66v2.34Z"/><path class="cls-84" d="M126.69,239.13a.24.24,0,0,1-.33.24l-1.67-.48a.47.47,0,0,1-.33-.43v-2.67a.24.24,0,0,1,.33-.23l1.67.47a.47.47,0,0,1,.33.43Z"/><path class="cls-88" d="M142.9,245.16c1.15-.39,2-1,2-3.13,0-1.33,1.42-2.82,1.42-4.18s-1.54-3.46-5-3.1-5,1.46-5,3.82c0,1.64,1.77,2.79,2.71,4.5C139.69,244.21,141.54,246.27,142.9,245.16Z"/><path class="cls-89" d="M144.11,234.73a3.3,3.3,0,0,0-1.78-.56l.27,0c.33,0,1.21-.41.47-.36-.32,0-.64.09-.95.14l.25-.15c0-.23-1.34-.23-2,.34a2.66,2.66,0,0,0-1.32-.23c-.67,0-1.56.3-1,.33.3,0,.66,0,.62.12-.22,0-1.29.21-1.29.55,0,.11.92-.06,1,0-.57.21-1,.66-1,1,0,.14.74-.28,1-.34-.33.34-.47.57-.45.81s.8,0,.88,0a3.16,3.16,0,0,0,1.53-.91,4.55,4.55,0,0,0,1.37.49c.18,0,.88.09.72-.24a3.25,3.25,0,0,1-.48-.76C142.07,234.88,144.69,235.21,144.11,234.73Z"/><path class="cls-90" d="M142.18,243.21a.47.47,0,0,1-.11.64.46.46,0,0,1-.58-.28.46.46,0,0,1,.1-.64A.48.48,0,0,1,142.18,243.21Zm-2.62-5.08h.09c.24,0,.34-.48.35-.65s0-.49-.26-.47h-.09c-.24,0-.34.48-.35.65S139.31,238.14,139.56,238.13Zm4.47,4.65c.32-.35.24-1.35-.27-.79C143.44,242.34,143.52,243.34,144,242.78Zm-4.41-2h0l.46.24h0c-.1-.1-.45-.36-.6-.2s.17.47.27.57a.82.82,0,0,0,.48.24C140.68,241.63,139.94,240.79,139.62,240.81Zm3.3.41c.05-.65-.77-.92-.84-.17S142.85,242,142.92,241.22Zm1.91-1c.34-.52-.18-1.15-.59-.51S144.42,240.89,144.83,240.25Zm.45-2.85a.43.43,0,0,0-.13-.34c-.4-.29-.79.79-.46,1h0l-.11-.31v0c0,.19.12.46.36.32A.86.86,0,0,0,145.28,237.4Zm-2.4.48c.16-.32.05-1.32-.28-.65C142.44,237.55,142.54,238.55,142.88,237.88ZM141,239.5a1,1,0,0,0-.23-.56.22.22,0,0,0-.41.1,1,1,0,0,0,.2.79l0,0c-.08-.17-.15-.35-.22-.52h0c0,.21.14.58.38.64S141,239.65,141,239.5Zm-2.49-.19c0-.49-.84-1.08-.77-.33C137.74,239.46,138.54,240.06,138.47,239.31Z"/><path class="cls-88" d="M105.68,245.16c1.16-.39,2-1,2-3.13,0-1.33,1.43-2.82,1.42-4.18s-1.53-3.46-5-3.1-5,1.46-5,3.82c0,1.64,1.77,2.79,2.71,4.5C102.48,244.21,104.33,246.27,105.68,245.16Z"/><path class="cls-89" d="M106.9,234.73a3.36,3.36,0,0,0-1.79-.56l.28,0c.32,0,1.2-.41.46-.36-.32,0-.63.09-.94.14l.24-.15c0-.23-1.34-.23-2,.34a2.73,2.73,0,0,0-1.33-.23c-.66,0-1.56.3-1,.33.31,0,.67,0,.62.12-.22,0-1.28.21-1.28.55,0,.11.92-.06,1,0-.58.21-1,.66-1,1,0,.14.73-.28,1-.34-.34.34-.47.57-.45.81s.79,0,.88,0a3.25,3.25,0,0,0,1.53-.91,4.55,4.55,0,0,0,1.37.49c.17,0,.87.09.71-.24a3.62,3.62,0,0,1-.48-.76C104.86,234.88,107.48,235.21,106.9,234.73Z"/><path class="cls-90" d="M105,243.21a.47.47,0,0,1-.11.64.46.46,0,0,1-.58-.28.47.47,0,0,1,.11-.64A.47.47,0,0,1,105,243.21Zm-2.62-5.08h.1c.23,0,.33-.48.35-.65s0-.49-.27-.47h-.09c-.23,0-.33.48-.35.65S102.1,238.14,102.34,238.13Zm4.47,4.65c.32-.35.24-1.35-.26-.79C106.22,242.34,106.3,243.34,106.81,242.78Zm-4.41-2h0l.45.24h0c-.1-.1-.45-.36-.59-.2s.16.47.27.57a.79.79,0,0,0,.47.24C103.46,241.63,102.72,240.79,102.4,240.81Zm3.3.41c.06-.65-.77-.92-.84-.17S105.63,242,105.7,241.22Zm1.92-1c.34-.52-.18-1.15-.6-.51S107.21,240.89,107.62,240.25Zm.45-2.85a.44.44,0,0,0-.14-.34c-.39-.29-.79.79-.46,1h0l-.11-.31v0c0,.19.13.46.36.32A.85.85,0,0,0,108.07,237.4Zm-2.41.48c.16-.32.06-1.32-.28-.65C105.23,237.55,105.33,238.55,105.66,237.88Zm-1.92,1.62a1,1,0,0,0-.22-.56.23.23,0,0,0-.42.1.94.94,0,0,0,.21.79v0l-.21-.52h0c0,.21.13.58.38.64S103.76,239.65,103.74,239.5Zm-2.48-.19c-.05-.49-.85-1.08-.78-.33C100.53,239.46,101.33,240.06,101.26,239.31Z"/><circle class="cls-80" cx="160.06" cy="239.54" r="6"/><circle class="cls-81" cx="160.06" cy="239.54" r="4.67"/><path class="cls-94" d="M160.39,239.54a.33.33,0,1,1-.66,0v-3.66a.33.33,0,1,1,.66,0Z"/><path class="cls-94" d="M163,241.21a.34.34,0,0,1-.46.12h0l-2.6-1.5a.33.33,0,0,1-.12-.45.34.34,0,0,1,.46-.13h0l2.6,1.5a.35.35,0,0,1,.12.46Z"/><rect class="cls-76" x="182.07" y="233.54" width="10" height="12" rx="1.33"/><path class="cls-80" d="M190.74,240.21a.33.33,0,0,1-.33.33h-6.67a.33.33,0,1,1,0-.66h6.67A.33.33,0,0,1,190.74,240.21Zm0-1.33a.33.33,0,0,1-.33.33h-6.67a.34.34,0,0,1,0-.67h6.67A.34.34,0,0,1,190.74,238.88Zm0-1.34a.34.34,0,0,1-.33.34h-6.67a.34.34,0,0,1,0-.67h6.67A.33.33,0,0,1,190.74,237.54Zm0-1.33a.33.33,0,0,1-.33.33h-6.67a.33.33,0,1,1,0-.66h6.67A.33.33,0,0,1,190.74,236.21Zm-5.33,6.67a.34.34,0,0,1-.34.33h-1.33a.34.34,0,0,1,0-.67h1.33A.34.34,0,0,1,185.41,242.88Zm5.33-1.34a.34.34,0,0,1-.33.34h-6.67a.34.34,0,0,1,0-.67h6.67A.33.33,0,0,1,190.74,241.54Z"/><path class="cls-94" d="M192.07,235.63a.7.7,0,0,0-.84,0l-.26.21-.5.4,0,0-.79.65-4,3.23a2,2,0,0,0-.39.69c-.13.28-.32.95-.48,1.46,0,.08-.36.62-.19.82s.78,0,.86,0c.54-.05,1.24-.12,1.55-.19a2.1,2.1,0,0,0,.76-.25h0l3.95-3.22.27-.22,0,0Z"/><path class="cls-95" d="M187.79,241.05a6.2,6.2,0,0,0-1.56-1.56.39.39,0,0,0-.54,0,2.8,2.8,0,0,0-.39.76c-.16.39-.43,1.39-.59,1.92,0,.09.17-.15.17-.07a.71.71,0,0,0,0,.2l-.05.05.07,0,0,.07.05-.05a.63.63,0,0,0,.19,0c.08,0-.16.19-.07.16.53-.16,1.54-.43,1.92-.59a2.32,2.32,0,0,0,.76-.39A.38.38,0,0,0,187.79,241.05Z"/><path class="cls-96" d="M190.18,235a.75.75,0,0,0,0,1.06h0l1,1a.74.74,0,0,0,1.06,0l1.06-1a.75.75,0,0,0,0-1.06l-1.06-1.05a.75.75,0,0,0-1.06,0h0Z"/><polygon class="cls-91" points="185.69 239.48 186.75 240.54 187.8 241.59 191.76 237.63 189.65 235.52 185.69 239.48"/><path class="cls-77" d="M185.51,242.46s-.69.37-.88.19.2-.87.2-.87A.69.69,0,0,1,185.51,242.46Z"/><rect class="cls-76" x="190.43" y="234.42" width="1.87" height="2.99" transform="translate(-110.77 204.41) rotate(-45)"/><path class="cls-80" d="M189.91,235.26l.27-.27,2.11,2.11-.26.27Zm.53-.53.26-.27,2.12,2.12-.27.26Z"/><text class="cls-115" transform="translate(71.69 296.07)">R0</text><text class="cls-115" transform="translate(100.15 296.07)">R1</text><text class="cls-115" transform="translate(127.02 296.07)">R2</text><text class="cls-115" transform="translate(153.06 296.07)">R3</text><text class="cls-115" transform="translate(180.96 296.07)">R4</text><text class="cls-115" transform="translate(207.76 296.45)">R5</text><text class="cls-115" transform="translate(238.44 296.07)">...</text><path class="cls-97" d="M587.23,258.2v-7.63h3.26a5.44,5.44,0,0,1,1.78.21,1.71,1.71,0,0,1,.89.73,2.13,2.13,0,0,1,.34,1.2,2,2,0,0,1-.51,1.42,2.46,2.46,0,0,1-1.51.7,3.71,3.71,0,0,1,.82.64,8.53,8.53,0,0,1,.89,1.24l.93,1.49h-1.85l-1.12-1.66a10.23,10.23,0,0,0-.82-1.12,1.13,1.13,0,0,0-.46-.32,2.47,2.47,0,0,0-.78-.09h-.31v3.19Zm1.55-4.4h1.14a5.39,5.39,0,0,0,1.39-.1.85.85,0,0,0,.44-.32,1,1,0,0,0,.15-.57.85.85,0,0,0-.79-.92,11.26,11.26,0,0,0-1.13,0h-1.2Z"/><path class="cls-97" d="M596.05,254.36l-1.34-.24a2.09,2.09,0,0,1,.78-1.19,2.88,2.88,0,0,1,1.63-.38,3.6,3.6,0,0,1,1.46.23,1.43,1.43,0,0,1,.68.59,3,3,0,0,1,.2,1.31l0,1.7a5.68,5.68,0,0,0,.07,1.08,3.36,3.36,0,0,0,.27.74h-1.46c0-.1-.08-.24-.14-.43a1.71,1.71,0,0,0,0-.18,2.48,2.48,0,0,1-.81.55,2.31,2.31,0,0,1-.91.18,1.89,1.89,0,0,1-1.35-.46,1.54,1.54,0,0,1-.5-1.17,1.6,1.6,0,0,1,.23-.84,1.49,1.49,0,0,1,.63-.56,5.09,5.09,0,0,1,1.17-.34,8.17,8.17,0,0,0,1.42-.36v-.14a.75.75,0,0,0-.21-.6,1.25,1.25,0,0,0-.79-.18.86.86,0,0,0-1,.69Zm2,1.18a7.65,7.65,0,0,1-.89.23,2.56,2.56,0,0,0-.8.25.63.63,0,0,0-.29.52.74.74,0,0,0,.23.53.8.8,0,0,0,.59.22,1.25,1.25,0,0,0,.76-.26,1,1,0,0,0,.35-.48,3.54,3.54,0,0,0,0-.71Z"/><path class="cls-97" d="M614.24,258.2v-7.63h3.26a5.44,5.44,0,0,1,1.78.21,1.74,1.74,0,0,1,.9.73,2.21,2.21,0,0,1,.33,1.2,2,2,0,0,1-.51,1.42,2.46,2.46,0,0,1-1.51.7,4,4,0,0,1,.83.64,9.55,9.55,0,0,1,.88,1.24l.93,1.49h-1.85l-1.12-1.66a12.48,12.48,0,0,0-.81-1.12,1.23,1.23,0,0,0-.47-.32,2.42,2.42,0,0,0-.78-.09h-.31v3.19Zm1.55-4.4h1.14a5.33,5.33,0,0,0,1.39-.1.85.85,0,0,0,.44-.32,1,1,0,0,0,.16-.57.9.9,0,0,0-.21-.62.93.93,0,0,0-.58-.3c-.13,0-.51,0-1.13,0h-1.21Z"/><path class="cls-97" d="M621.9,258.2v-7.63h1.47v2.75a2.09,2.09,0,0,1,1.61-.77,2.17,2.17,0,0,1,1.68.73,3,3,0,0,1,.66,2.1,3.15,3.15,0,0,1-.68,2.18,2.11,2.11,0,0,1-1.64.76,2.14,2.14,0,0,1-.94-.23,2.41,2.41,0,0,1-.8-.7v.81Zm1.46-2.88a2.31,2.31,0,0,0,.27,1.26,1.16,1.16,0,0,0,1,.59,1,1,0,0,0,.83-.42,2,2,0,0,0,.35-1.3,2.11,2.11,0,0,0-.35-1.36,1.14,1.14,0,0,0-1.76,0A1.82,1.82,0,0,0,623.36,255.32Z"/><path class="cls-97" d="M642.55,258.2v-7.63h3.26a5.51,5.51,0,0,1,1.79.21,1.71,1.71,0,0,1,.89.73,2.21,2.21,0,0,1,.33,1.2,2,2,0,0,1-.5,1.42,2.49,2.49,0,0,1-1.52.7,3.78,3.78,0,0,1,.83.64,8.66,8.66,0,0,1,.88,1.24l.94,1.49H647.6l-1.12-1.66a10.23,10.23,0,0,0-.82-1.12,1.2,1.2,0,0,0-.46-.32,2.51,2.51,0,0,0-.78-.09h-.32v3.19Zm1.55-4.4h1.15a5.44,5.44,0,0,0,1.39-.1.82.82,0,0,0,.43-.32.94.94,0,0,0,.16-.57.9.9,0,0,0-.21-.62.91.91,0,0,0-.58-.3c-.13,0-.5,0-1.13,0H644.1Z"/><path class="cls-97" d="M655.12,254.31l-1.45.26a1,1,0,0,0-.33-.65,1,1,0,0,0-.68-.22,1.08,1.08,0,0,0-.87.38,1.9,1.9,0,0,0-.33,1.26,2.27,2.27,0,0,0,.33,1.39,1.11,1.11,0,0,0,.9.4,1,1,0,0,0,.68-.24,1.39,1.39,0,0,0,.38-.81l1.44.24a2.6,2.6,0,0,1-.86,1.5,2.74,2.74,0,0,1-1.71.5,2.58,2.58,0,0,1-2-.76,3,3,0,0,1-.72-2.12,3,3,0,0,1,.73-2.13,2.57,2.57,0,0,1,2-.76,2.71,2.71,0,0,1,1.62.43A2.42,2.42,0,0,1,655.12,254.31Z"/><path class="cls-97" d="M668.59,258.2v-7.63h3.26a5.44,5.44,0,0,1,1.78.21,1.74,1.74,0,0,1,.9.73,2.21,2.21,0,0,1,.33,1.2,2,2,0,0,1-.51,1.42,2.46,2.46,0,0,1-1.51.7,4,4,0,0,1,.83.64,9.55,9.55,0,0,1,.88,1.24l.93,1.49h-1.85l-1.12-1.66a12.48,12.48,0,0,0-.81-1.12,1.23,1.23,0,0,0-.47-.32,2.42,2.42,0,0,0-.78-.09h-.31v3.19Zm1.55-4.4h1.14a5.33,5.33,0,0,0,1.39-.1.85.85,0,0,0,.44-.32,1,1,0,0,0,.16-.57.9.9,0,0,0-.21-.62.93.93,0,0,0-.58-.3c-.13,0-.51,0-1.13,0h-1.21Z"/><path class="cls-97" d="M681.4,258.2H680v-.81a2.29,2.29,0,0,1-.8.7,2,2,0,0,1-.94.23,2.1,2.1,0,0,1-1.64-.77,3.12,3.12,0,0,1-.68-2.14,3.09,3.09,0,0,1,.66-2.13,2.18,2.18,0,0,1,1.68-.73,2.09,2.09,0,0,1,1.61.77v-2.75h1.47Zm-3.92-2.88a2.46,2.46,0,0,0,.25,1.28,1.1,1.1,0,0,0,1,.57,1.08,1.08,0,0,0,.86-.43,2,2,0,0,0,.36-1.28,2.13,2.13,0,0,0-.35-1.37,1.08,1.08,0,0,0-.88-.42,1.1,1.1,0,0,0-.88.41A1.91,1.91,0,0,0,677.48,255.32Z"/><path class="cls-97" d="M696.49,258.2v-7.63h3.25a5.51,5.51,0,0,1,1.79.21,1.71,1.71,0,0,1,.89.73,2.13,2.13,0,0,1,.34,1.2,2,2,0,0,1-.51,1.42,2.46,2.46,0,0,1-1.52.7,3.78,3.78,0,0,1,.83.64,8.66,8.66,0,0,1,.88,1.24l.94,1.49h-1.85l-1.12-1.66a10.23,10.23,0,0,0-.82-1.12,1.13,1.13,0,0,0-.46-.32,2.51,2.51,0,0,0-.78-.09H698v3.19Zm1.54-4.4h1.15a5.39,5.39,0,0,0,1.39-.1.78.78,0,0,0,.43-.32.94.94,0,0,0,.16-.57.9.9,0,0,0-.21-.62.91.91,0,0,0-.58-.3,11.26,11.26,0,0,0-1.13,0H698Z"/><path class="cls-97" d="M707.42,256.44l1.47.24a2.41,2.41,0,0,1-.89,1.22,2.65,2.65,0,0,1-1.53.42,2.47,2.47,0,0,1-2.14-.94,3.12,3.12,0,0,1-.55-1.9,3,3,0,0,1,.72-2.15,2.38,2.38,0,0,1,1.82-.78,2.48,2.48,0,0,1,2,.81,3.61,3.61,0,0,1,.69,2.5h-3.69a1.46,1.46,0,0,0,.36,1,1.13,1.13,0,0,0,.85.36.88.88,0,0,0,.58-.19A1.15,1.15,0,0,0,707.42,256.44Zm.09-1.48a1.39,1.39,0,0,0-.33-1,1,1,0,0,0-.77-.33,1,1,0,0,0-.79.35,1.33,1.33,0,0,0-.31.94Z"/><path class="cls-97" d="M723.29,258.58V251h3.26a5.44,5.44,0,0,1,1.78.21,1.83,1.83,0,0,1,.9.73,2.21,2.21,0,0,1,.33,1.2,2,2,0,0,1-.51,1.42,2.41,2.41,0,0,1-1.51.7,4,4,0,0,1,.83.64,9.55,9.55,0,0,1,.88,1.24l.93,1.49h-1.85l-1.12-1.66a12.48,12.48,0,0,0-.81-1.12,1.23,1.23,0,0,0-.47-.32,2.49,2.49,0,0,0-.78-.08h-.31v3.18Zm1.55-4.4H726a5.39,5.39,0,0,0,1.39-.1.85.85,0,0,0,.44-.32,1,1,0,0,0,.15-.57.89.89,0,0,0-.2-.62.93.93,0,0,0-.59-.3,11.26,11.26,0,0,0-1.13,0h-1.2Z"/><path class="cls-97" d="M730.37,253.05h.81v-.41a2.72,2.72,0,0,1,.15-1,1.15,1.15,0,0,1,.55-.56,2.16,2.16,0,0,1,1-.22,4.27,4.27,0,0,1,1.23.19l-.2,1a2.66,2.66,0,0,0-.67-.08.63.63,0,0,0-.46.14.87.87,0,0,0-.14.57v.39h1.1v1.15h-1.1v4.38h-1.47V254.2h-.81Z"/><path class="cls-97" d="M754,258.39v-1.46h1.47v1.46Z"/><path class="cls-97" d="M756.93,258.39v-1.46h1.47v1.46Z"/><path class="cls-97" d="M759.9,258.39v-1.46h1.47v1.46Z"/><text class="cls-116" transform="translate(586.44 258.2) scale(1.01 1)">Ra</text><text class="cls-116" transform="translate(613.45 258.2) scale(1.01 1)">Rb</text><text class="cls-116" transform="translate(641.77 258.2) scale(1.01 1)">Rc</text><text class="cls-116" transform="translate(667.8 258.2) scale(1.01 1)">Rd</text><text class="cls-116" transform="translate(695.7 258.2) scale(1.01 1)">Re</text><text class="cls-116" transform="translate(722.5 258.58) scale(1.01 1)">Rf</text><text class="cls-116" transform="translate(753.18 258.39) scale(1.01 1)">...</text><path class="cls-2" d="M567.58,546.82q0,13.33-12.23,22.79t-29.6,9.46a50.86,50.86,0,0,1-13-1.48q-5.14,13.78-19.73,22.22a63.11,63.11,0,0,1-32.56,8.66q-18.56,0-32.85-8.66a81.69,81.69,0,0,1-43.74,12.08,89.88,89.88,0,0,1-19.08-2,76.72,76.72,0,0,1-17.75-6.21q-16.94-8-25.63-22.34l-2.69.11h-3.2q-21.51,0-36.68-11.73-15-11.62-15-28.38,0-16.19,14.29-27.58,14.28-11.62,34.76-12.3,1.47-13.8,15.17-23.48,13.41-9.92,32.26-9.91a57.78,57.78,0,0,1,21.8,4.21h0q16.5-16.07,42.86-16.06a64.75,64.75,0,0,1,30.79,7.4q13.85,7.06,20.18,19l8.1-.57a40,40,0,0,1,15.83,2.17,48.9,48.9,0,0,1,13.48,7.41q12.38,9.45,12.38,22.79,17.37,0,29.6,9.46T567.58,546.82Z"/><path class="cls-36" d="M384.08,604.83A75.17,75.17,0,0,1,367.33,603a68.81,68.81,0,0,1-15-5.26,60.25,60.25,0,0,1-12.61-8.24,48.61,48.61,0,0,1-9.56-11l-.08-.12c-1.18-2-3.33-4-10.18-4.08l-1.74.11h-2.39c-11.66,0-21.72-3.21-29.91-9.54s-12.48-14-12.48-23.25c0-8.48,3.88-16,11.54-22.4,7.65-6.2,17.24-9.6,28.58-10.15a11,11,0,0,0,6.23-2,6.72,6.72,0,0,0,2.89-4.73c1-7.9,5.23-14.42,12.62-19.27a45.17,45.17,0,0,1,25.3-7.37,49.62,49.62,0,0,1,17.27,3.22,12.83,12.83,0,0,0,4.53,1,9.67,9.67,0,0,0,7.22-2.82c9.24-8.8,21.22-13.24,35.65-13.24a58.09,58.09,0,0,1,13.36,1.52,51.12,51.12,0,0,1,12,4.43,45.09,45.09,0,0,1,9.82,6.91,35.2,35.2,0,0,1,7,9,8.42,8.42,0,0,0,3.62,3.54,7.72,7.72,0,0,0,3.79.94c.22,0,.45,0,.68,0l8.18-.46c.7,0,1.28-.05,1.85-.05a33.39,33.39,0,0,1,11.35,1.92,36.75,36.75,0,0,1,10.06,5.49l.11.09A27.92,27.92,0,0,1,514,505a19.37,19.37,0,0,1,2.51,9.7,5.72,5.72,0,0,0,.67,2.71,6.94,6.94,0,0,0,1.88,2.25,10.43,10.43,0,0,0,3.12,1.65,11.21,11.21,0,0,0,3.79.59,36.58,36.58,0,0,1,23,7.5c6.33,4.89,9.54,10.84,9.54,17.66s-3.17,12.66-9.43,17.69l-.22.18a37.5,37.5,0,0,1-22.87,7.18A36.48,36.48,0,0,1,516.8,571a15.4,15.4,0,0,0-3.83-.48,10.23,10.23,0,0,0-5.55,1.47,7.93,7.93,0,0,0-3.51,4,32.13,32.13,0,0,1-6.42,10.33,42.53,42.53,0,0,1-10,8,52.15,52.15,0,0,1-12.5,5.21,54.05,54.05,0,0,1-14.28,1.89,53.13,53.13,0,0,1-27.07-7.11,11.58,11.58,0,0,0-5.78-1.43,9.56,9.56,0,0,0-5.71,1.46l-.19.12C411,601.34,398.27,604.83,384.08,604.83Z"/><text class="cls-117" transform="translate(293.39 551.14) scale(0.96 1)"><tspan xml:space="preserve"> co-cardinals</tspan></text><text class="cls-45" transform="translate(49.19 651.78) scale(0.96 1)">tagged<tspan class="cls-46"><tspan x="-37.35" y="36.06">messages</tspan></tspan></text></svg>